<?xml version="1.0" encoding="UTF-8"?>
<svg width="32px" height="30px" viewBox="0 0 32 30" version="1.1" xmlns="http://www.w3.org/2000/svg" xmlns:xlink="http://www.w3.org/1999/xlink">
    <!-- Generator: Sketch 59.1 (86144) - https://sketch.com -->
    <title>coins</title>
    <desc>Created with Sketch.</desc>
    <g id="Website" stroke="none" stroke-width="1" fill="none" fill-rule="evenodd" stroke-linecap="round" stroke-linejoin="round">
        <g id="Landing-page" transform="translate(-1134.000000, -2574.000000)" stroke-width="2">
            <g id="coins" transform="translate(1135.000000, 2575.000000)">
                <path d="M0,3 L0,7 C0,8.657 2.686,10 6,10 C9.314,10 12,8.657 12,7 L12,3" id="Path" stroke="#FFFFFF"></path>
                <path d="M0,7 L0,11 C0,12.657 2.686,14 6,14 C9.314,14 12,12.657 12,11 L12,7" id="Path" stroke="#FFFFFF"></path>
                <line x1="12" y1="14.401" x2="12" y2="11" id="Path" stroke="#FFFFFF"></line>
                <path d="M0,11 L0,15 C0,16.657 2.686,18 6,18 C7.093,18 8.117,17.853 9,17.598" id="Path" stroke="#FFFFFF"></path>
                <path d="M0,15 L0,19 C0,20.657 2.686,22 6,22 C7.093,22 8.118,21.853 9,21.598" id="Path" stroke="#FFFFFF"></path>
                <ellipse id="Oval" stroke="#FFFFFF" cx="6" cy="3" rx="6" ry="3"></ellipse>
                <path d="M18,7 L18,11 C18,12.657 20.686,14 24,14 C27.314,14 30,12.657 30,11 L30,7" id="Path" stroke="#FFFFFF"></path>
                <path d="M21,17.594 C21.883,17.85 22.906,18 24,18 C27.314,18 30,16.657 30,15 L30,11" id="Path" stroke="#FFFFFF"></path>
                <line x1="18" y1="11" x2="18" y2="14.401" id="Path" stroke="#FFFFFF"></line>
                <path d="M21,21.596 C21.883,21.851 22.907,22 24,22 C27.314,22 30,20.657 30,19 L30,15" id="Path" stroke="#FFFFFF"></path>
                <ellipse id="Oval" stroke="#FFFFFF" cx="24" cy="7" rx="6" ry="3"></ellipse>
                <path d="M9,17 L9,21 C9,22.657 11.686,24 15,24 C18.314,24 21,22.657 21,21 L21,17" id="Path" stroke="#B4C2FF"></path>
                <path d="M9,21 L9,25 C9,26.657 11.686,28 15,28 C18.314,28 21,26.657 21,25 L21,21" id="Path" stroke="#B4C2FF"></path>
                <ellipse id="Oval" stroke="#B4C2FF" cx="15" cy="17" rx="6" ry="3"></ellipse>
            </g>
        </g>
    </g>
</svg>