<?xml version="1.0" encoding="UTF-8"?>
<svg width="30px" height="30px" viewBox="0 0 30 30" version="1.1" xmlns="http://www.w3.org/2000/svg" xmlns:xlink="http://www.w3.org/1999/xlink">
    <!-- Generator: Sketch 59.1 (86144) - https://sketch.com -->
    <title>refund</title>
    <desc>Created with Sketch.</desc>
    <g id="Website" stroke="none" stroke-width="1" fill="none" fill-rule="evenodd" stroke-linecap="round" stroke-linejoin="round">
        <g id="Landing-page" transform="translate(-533.000000, -2575.000000)" stroke-width="2">
            <g id="refund" transform="translate(534.000000, 2576.000000)">
                <path d="M0,14 C0,21.7319865 6.2680135,28 14,28 C21.7319865,28 28,21.7319865 28,14 C28,6.2680135 21.7319865,0 14,0 C8.47848672,0.0340452823 3.47856218,3.26926762 1.185,8.292" id="Path" stroke="#FFFFFF"></path>
                <polyline id="Path" stroke="#FFFFFF" points="0.224 0.895 1.185 8.292 8.592 7.331"></polyline>
                <line x1="14" y1="7" x2="14" y2="21" id="Path" stroke="#B4C2FF"></line>
                <path d="M17.375,9.219 C15.754,8.328 10.648,7.663 10.648,10.732 C10.648,14.406 17.132,13.109 17.132,16.351 C17.132,19.593 12.918,19.351 10,18.296" id="Path" stroke="#B4C2FF"></path>
            </g>
        </g>
    </g>
</svg>