<?xml version="1.0" encoding="UTF-8"?>
<svg width="32px" height="32px" viewBox="0 0 32 32" version="1.1" xmlns="http://www.w3.org/2000/svg" xmlns:xlink="http://www.w3.org/1999/xlink">
    <!-- Generator: Sketch 59.1 (86144) - https://sketch.com -->
    <title>brand-unselected</title>
    <desc>Created with Sketch.</desc>
    <g id="Website" stroke="none" stroke-width="1" fill="none" fill-rule="evenodd">
        <g id="Individual-register-page" transform="translate(-304.000000, -372.000000)" fill="#C0CCDA" fill-rule="nonzero">
            <g id="brand-unselected" transform="translate(304.000000, 372.000000)">
                <path d="M23,3 L17,3 L17,0 L15,0 L15,3 L9,3 C8.447,3 8,3.447 8,4 L8,16 L10,16 L10,5 L22,5 L22,12 L24,12 L24,4 C24,3.447 23.553,3 23,3 Z" id="Path"></path>
                <path d="M31,14 L18,14 C17.447,14 17,14.447 17,15 L17,30 L15,30 L15,19 C15,18.447 14.553,18 14,18 L1,18 C0.447,18 0,18.447 0,19 L0,31 C0,31.553 0.447,32 1,32 L31,32 C31.553,32 32,31.553 32,31 L32,15 C32,14.447 31.553,14 31,14 Z M10,28 L5,28 L5,26 L10,26 L10,28 Z M10,24 L5,24 L5,22 L10,22 L10,24 Z M27,28 L22,28 L22,26 L27,26 L27,28 Z M27,24 L22,24 L22,22 L27,22 L27,24 Z M27,20 L22,20 L22,18 L27,18 L27,20 Z" id="Shape"></path>
            </g>
        </g>
    </g>
</svg>