<?xml version="1.0" encoding="UTF-8"?>
<svg width="46px" height="46px" viewBox="0 0 46 46" version="1.1" xmlns="http://www.w3.org/2000/svg" xmlns:xlink="http://www.w3.org/1999/xlink">
    <!-- Generator: Sketch 59.1 (86144) - https://sketch.com -->
    <title>corner-top-right</title>
    <desc>Created with Sketch.</desc>
    <g id="Website" stroke="none" stroke-width="1" fill="none" fill-rule="evenodd">
        <g id="Landing-page" transform="translate(-132.000000, -1110.000000)" fill-rule="nonzero">
            <g id="corner-top-right" transform="translate(132.000000, 1110.000000)">
                <path d="M45,0 L29,0 C28.596,0 28.23,0.244 28.076,0.617 C27.921,0.991 28.007,1.421 28.293,1.707 L34.879,8.293 L26.293,16.879 C25.902,17.27 25.902,17.903 26.293,18.293 L27.707,19.707 C28.098,20.098 28.731,20.098 29.121,19.707 L37.707,11.121 L44.293,17.707 C44.484,17.899 44.74,18 45,18 C45.129,18 45.259,17.975 45.383,17.924 C45.757,17.769 46,17.404 46,17 L46,1 C46,0.448 45.553,0 45,0 Z" id="Path" fill="#00EFFF"></path>
                <path d="M20,46 L2,46 C0.895,46 0,45.105 0,44 L0,26 C0,24.895 0.895,24 2,24 L20,24 C21.105,24 22,24.895 22,26 L22,44 C22,45.105 21.105,46 20,46 Z" id="Path" fill="#00B7FF"></path>
            </g>
        </g>
    </g>
</svg>