<?xml version="1.0" encoding="UTF-8"?>
<svg width="743px" height="645px" viewBox="0 0 743 645" version="1.1" xmlns="http://www.w3.org/2000/svg" xmlns:xlink="http://www.w3.org/1999/xlink">
    <!-- Generator: Sketch 59.1 (86144) - https://sketch.com -->
    <title>hero-battern</title>
    <desc>Created with Sketch.</desc>
    <defs>
        <polygon id="path-1" points="0 0.760630362 6.00083248 0.760630362 6.00083248 6.76173248 0 6.76173248"></polygon>
    </defs>
    <g id="Website" stroke="none" stroke-width="1" fill="none" fill-rule="evenodd" opacity="0.163829985">
        <g id="Registeration-success" transform="translate(-697.000000, -199.000000)">
            <g id="hero-battern" transform="translate(697.000000, 193.000000)">
                <path d="M723.8893,371.2133 C723.6583,369.5723 722.1413,368.4293 720.5003,368.6603 C718.8603,368.8913 717.7163,370.4073 717.9473,372.0483 C718.1773,373.6893 719.6953,374.8323 721.3353,374.6023 C722.9763,374.3713 724.1193,372.8543 723.8893,371.2133" id="Fill-5" fill="#00EFFF"></path>
                <path d="M684.278,376.7807 C684.048,375.1397 682.531,373.9967 680.889,374.2267 C679.249,374.4577 678.106,375.9747 678.337,377.6157 C678.567,379.2567 680.084,380.3997 681.725,380.1687 C683.366,379.9387 684.508,378.4217 684.278,376.7807" id="Fill-7" fill="#00EFFF"></path>
                <path d="M644.6677,382.3476 C644.4377,380.7066 642.9197,379.5636 641.2787,379.7936 C639.6387,380.0246 638.4947,381.5416 638.7267,383.1826 C638.9567,384.8236 640.4737,385.9666 642.1137,385.7356 C643.7547,385.5056 644.8977,383.9886 644.6677,382.3476" id="Fill-9" fill="#00EFFF"></path>
                <path d="M718.322,331.603 C718.092,329.962 716.574,328.819 714.933,329.05 C713.293,329.28 712.15,330.797 712.381,332.438 C712.611,334.079 714.128,335.222 715.768,334.991 C717.41,334.761 718.552,333.244 718.322,331.603" id="Fill-15" fill="#00EFFF"></path>
                <path d="M678.7116,337.1699 C678.4806,335.5289 676.9636,334.3859 675.3226,334.6169 C673.6826,334.8469 672.5386,336.3639 672.7696,338.0049 C673.0006,339.6459 674.5176,340.7889 676.1576,340.5579 C677.7986,340.3279 678.9416,338.8109 678.7116,337.1699" id="Fill-17" fill="#00EFFF"></path>
                <path d="M639.1003,342.7367 C638.8703,341.0957 637.3533,339.9527 635.7123,340.1837 C634.0713,340.4137 632.9283,341.9307 633.1593,343.5717 C633.3893,345.2127 634.9073,346.3557 636.5473,346.1247 C638.1883,345.8947 639.3303,344.3777 639.1003,342.7367" id="Fill-19" fill="#00EFFF"></path>
                <path d="M712.7546,291.9921 C712.5246,290.3511 711.0076,289.2081 709.3666,289.4391 C707.7266,289.6691 706.5826,291.1861 706.8136,292.8271 C707.0436,294.4681 708.5616,295.6111 710.2016,295.3801 C711.8426,295.1501 712.9856,293.6331 712.7546,291.9921" id="Fill-25" fill="#00EFFF"></path>
                <path d="M673.1442,297.559 C672.9142,295.918 671.3972,294.775 669.7552,295.006 C668.1152,295.236 666.9722,296.753 667.2032,298.394 C667.4332,300.035 668.9502,301.178 670.5912,300.947 C672.2322,300.717 673.3742,299.2 673.1442,297.559" id="Fill-27" fill="#00EFFF"></path>
                <path d="M633.5339,303.1259 C633.3039,301.4849 631.7859,300.3419 630.1449,300.5729 C628.5049,300.8029 627.3609,302.3199 627.5919,303.9609 C627.8229,305.6019 629.3399,306.7449 630.9799,306.5139 C632.6209,306.2839 633.7639,304.7669 633.5339,303.1259" id="Fill-29" fill="#00EFFF"></path>
                <path d="M746.7985,246.8144 C746.5685,245.1734 745.0515,244.0304 743.4105,244.2614 C741.7705,244.4914 740.6265,246.0084 740.8575,247.6494 C741.0875,249.2904 742.6055,250.4334 744.2455,250.2024 C745.8865,249.9724 747.0285,248.4554 746.7985,246.8144" id="Fill-33" fill="#00EFFF"></path>
                <path d="M707.1882,252.3813 C706.9582,250.7403 705.4402,249.5973 703.7992,249.8283 C702.1592,250.0583 701.0162,251.5753 701.2472,253.2163 C701.4772,254.8573 702.9942,256.0003 704.6342,255.7693 C706.2752,255.5393 707.4182,254.0223 707.1882,252.3813" id="Fill-35" fill="#00EFFF"></path>
                <path d="M667.5778,257.9482 C667.3468,256.3072 665.8298,255.1642 664.1888,255.3952 C662.5488,255.6252 661.4048,257.1422 661.6358,258.7832 C661.8658,260.4242 663.3838,261.5672 665.0238,261.3372 C666.6648,261.1062 667.8078,259.5892 667.5778,257.9482" id="Fill-37" fill="#00EFFF"></path>
                <path d="M627.9665,263.5151 C627.7365,261.8741 626.2195,260.7311 624.5785,260.9621 C622.9375,261.1921 621.7945,262.7091 622.0255,264.3501 C622.2555,265.9911 623.7725,267.1341 625.4135,266.9041 C627.0545,266.6731 628.1965,265.1561 627.9665,263.5151" id="Fill-39" fill="#00EFFF"></path>
                <path d="M741.2321,207.2035 C741.0021,205.5625 739.4841,204.4195 737.8431,204.6505 C736.2031,204.8815 735.0591,206.3975 735.2911,208.0385 C735.5211,209.6795 737.0381,210.8225 738.6781,210.5925 C740.3191,210.3615 741.4621,208.8445 741.2321,207.2035" id="Fill-43" fill="#00EFFF"></path>
                <path d="M701.6208,212.7704 C701.3908,211.1294 699.8738,209.9864 698.2328,210.2174 C696.5928,210.4484 695.4488,211.9644 695.6798,213.6054 C695.9098,215.2464 697.4278,216.3894 699.0678,216.1594 C700.7088,215.9284 701.8518,214.4114 701.6208,212.7704" id="Fill-45" fill="#00EFFF"></path>
                <path d="M662.0104,218.3378 C661.7804,216.6968 660.2624,215.5538 658.6214,215.7838 C656.9814,216.0148 655.8384,217.5318 656.0694,219.1728 C656.2994,220.8138 657.8164,221.9568 659.4564,221.7258 C661.0984,221.4958 662.2404,219.9788 662.0104,218.3378" id="Fill-47" fill="#00EFFF"></path>
                <path d="M622.4001,223.9047 C622.1701,222.2637 620.6521,221.1207 619.0111,221.3507 C617.3711,221.5817 616.2271,223.0987 616.4581,224.7397 C616.6891,226.3807 618.2061,227.5237 619.8461,227.2927 C621.4871,227.0627 622.6301,225.5457 622.4001,223.9047" id="Fill-49" fill="#00EFFF"></path>
                <path d="M605.0563,387.9145 C604.8263,386.2735 603.3093,385.1305 601.6683,385.3615 C600.0283,385.5915 598.8843,387.1085 599.1153,388.7495 C599.3453,390.3905 600.8633,391.5335 602.5033,391.3025 C604.1443,391.0725 605.2863,389.5555 605.0563,387.9145" id="Fill-51" fill="#00EFFF"></path>
                <path d="M565.446,393.4814 C565.216,391.8404 563.698,390.6974 562.057,390.9284 C560.417,391.1584 559.274,392.6754 559.505,394.3164 C559.735,395.9574 561.252,397.1004 562.892,396.8694 C564.534,396.6394 565.676,395.1224 565.446,393.4814" id="Fill-53" fill="#00EFFF"></path>
                <path d="M525.8356,399.0483 C525.6046,397.4073 524.0876,396.2643 522.4466,396.4953 C520.8066,396.7253 519.6626,398.2423 519.8936,399.8833 C520.1246,401.5243 521.6416,402.6673 523.2816,402.4363 C524.9226,402.2063 526.0656,400.6893 525.8356,399.0483" id="Fill-55" fill="#00EFFF"></path>
                <path d="M486.2243,404.6152 C485.9943,402.9742 484.4773,401.8312 482.8363,402.0622 C481.1953,402.2922 480.0523,403.8092 480.2833,405.4502 C480.5133,407.0912 482.0313,408.2342 483.6713,408.0032 C485.3123,407.7732 486.4543,406.2562 486.2243,404.6152" id="Fill-57" fill="#00EFFF"></path>
                <path d="M446.614,410.1821 C446.384,408.5411 444.866,407.3981 443.225,407.6291 C441.585,407.8591 440.442,409.3761 440.673,411.0171 C440.903,412.6581 442.42,413.8011 444.06,413.5701 C445.701,413.3401 446.844,411.8231 446.614,410.1821" id="Fill-59" fill="#00EFFF"></path>
                <path d="M599.4899,348.3036 C599.2599,346.6626 597.7419,345.5196 596.1009,345.7506 C594.4609,345.9806 593.3179,347.4976 593.5489,349.1386 C593.7789,350.7796 595.2959,351.9226 596.9359,351.6916 C598.5769,351.4616 599.7199,349.9446 599.4899,348.3036" id="Fill-61" fill="#00EFFF"></path>
                <path d="M559.8786,353.8705 C559.6486,352.2295 558.1316,351.0865 556.4906,351.3175 C554.8506,351.5475 553.7066,353.0645 553.9376,354.7055 C554.1676,356.3465 555.6856,357.4895 557.3256,357.2585 C558.9666,357.0285 560.1096,355.5115 559.8786,353.8705" id="Fill-63" fill="#00EFFF"></path>
                <path d="M520.2682,359.4374 C520.0382,357.7964 518.5212,356.6534 516.8792,356.8844 C515.2392,357.1144 514.0962,358.6314 514.3272,360.2724 C514.5572,361.9134 516.0742,363.0564 517.7152,362.8254 C519.3562,362.5954 520.4982,361.0784 520.2682,359.4374" id="Fill-65" fill="#00EFFF"></path>
                <path d="M480.6579,365.0043 C480.4279,363.3633 478.9099,362.2203 477.2689,362.4513 C475.6289,362.6813 474.4849,364.1983 474.7159,365.8393 C474.9469,367.4803 476.4639,368.6233 478.1039,368.3923 C479.7449,368.1623 480.8879,366.6453 480.6579,365.0043" id="Fill-67" fill="#00EFFF"></path>
                <path d="M441.0466,370.5712 C440.8166,368.9302 439.2996,367.7872 437.6586,368.0182 C436.0186,368.2482 434.8746,369.7652 435.1056,371.4062 C435.3356,373.0472 436.8536,374.1902 438.4936,373.9592 C440.1346,373.7292 441.2766,372.2122 441.0466,370.5712" id="Fill-69" fill="#00EFFF"></path>
                <path d="M593.9225,308.6928 C593.6925,307.0518 592.1755,305.9088 590.5345,306.1398 C588.8945,306.3698 587.7505,307.8868 587.9815,309.5278 C588.2115,311.1688 589.7295,312.3118 591.3695,312.0808 C593.0105,311.8508 594.1525,310.3338 593.9225,308.6928" id="Fill-71" fill="#00EFFF"></path>
                <path d="M554.3122,314.2597 C554.0822,312.6187 552.5642,311.4757 550.9232,311.7067 C549.2832,311.9367 548.1402,313.4537 548.3712,315.0947 C548.6012,316.7357 550.1182,317.8787 551.7582,317.6477 C553.3992,317.4177 554.5422,315.9007 554.3122,314.2597" id="Fill-73" fill="#00EFFF"></path>
                <path d="M514.7018,319.8266 C514.4708,318.1856 512.9538,317.0426 511.3128,317.2736 C509.6728,317.5036 508.5288,319.0206 508.7598,320.6616 C508.9898,322.3026 510.5078,323.4456 512.1478,323.2156 C513.7888,322.9846 514.9318,321.4676 514.7018,319.8266" id="Fill-75" fill="#00EFFF"></path>
                <path d="M475.0905,325.3935 C474.8605,323.7525 473.3435,322.6095 471.7025,322.8405 C470.0615,323.0705 468.9185,324.5875 469.1495,326.2285 C469.3795,327.8695 470.8975,329.0125 472.5375,328.7825 C474.1785,328.5515 475.3205,327.0345 475.0905,325.3935" id="Fill-77" fill="#00EFFF"></path>
                <path d="M435.4802,330.9604 C435.2502,329.3194 433.7322,328.1764 432.0912,328.4074 C430.4512,328.6384 429.3072,330.1544 429.5392,331.7954 C429.7692,333.4364 431.2862,334.5794 432.9262,334.3494 C434.5672,334.1184 435.7102,332.6014 435.4802,330.9604" id="Fill-79" fill="#00EFFF"></path>
                <path d="M588.3561,269.082 C588.1261,267.441 586.6081,266.298 584.9671,266.529 C583.3271,266.76 582.1831,268.276 582.4151,269.917 C582.6451,271.558 584.1621,272.701 585.8021,272.471 C587.4431,272.24 588.5861,270.723 588.3561,269.082" id="Fill-81" fill="#00EFFF"></path>
                <path d="M548.7448,274.6489 C548.5148,273.0079 546.9978,271.8649 545.3568,272.0959 C543.7168,272.3269 542.5728,273.8429 542.8038,275.4839 C543.0338,277.1249 544.5518,278.2679 546.1918,278.0379 C547.8328,277.8069 548.9758,276.2899 548.7448,274.6489" id="Fill-83" fill="#00EFFF"></path>
                <path d="M509.1345,280.2162 C508.9045,278.5752 507.3865,277.4322 505.7455,277.6622 C504.1055,277.8932 502.9625,279.4102 503.1935,281.0512 C503.4235,282.6922 504.9405,283.8352 506.5805,283.6042 C508.2225,283.3742 509.3645,281.8572 509.1345,280.2162" id="Fill-85" fill="#00EFFF"></path>
                <path d="M469.5241,285.7831 C469.2941,284.1421 467.7761,282.9991 466.1351,283.2291 C464.4951,283.4601 463.3511,284.9771 463.5821,286.6181 C463.8131,288.2591 465.3301,289.4021 466.9701,289.1711 C468.6111,288.9411 469.7541,287.4241 469.5241,285.7831" id="Fill-87" fill="#00EFFF"></path>
                <path d="M429.9128,291.35 C429.6828,289.709 428.1658,288.566 426.5248,288.797 C424.8848,289.027 423.7408,290.544 423.9718,292.185 C424.2018,293.826 425.7198,294.969 427.3598,294.738 C429.0008,294.508 430.1428,292.991 429.9128,291.35" id="Fill-89" fill="#00EFFF"></path>
                <path d="M582.7888,229.4716 C582.5588,227.8306 581.0418,226.6876 579.4008,226.9186 C577.7608,227.1486 576.6168,228.6656 576.8478,230.3066 C577.0778,231.9476 578.5958,233.0906 580.2358,232.8596 C581.8768,232.6296 583.0188,231.1126 582.7888,229.4716" id="Fill-91" fill="#00EFFF"></path>
                <path d="M543.1784,235.0385 C542.9484,233.3975 541.4304,232.2545 539.7894,232.4855 C538.1494,232.7155 537.0064,234.2325 537.2374,235.8735 C537.4674,237.5145 538.9844,238.6575 540.6244,238.4265 C542.2654,238.1965 543.4084,236.6795 543.1784,235.0385" id="Fill-93" fill="#00EFFF"></path>
                <path d="M503.5671,240.6054 C503.3371,238.9644 501.8201,237.8214 500.1791,238.0524 C498.5391,238.2824 497.3951,239.7994 497.6261,241.4404 C497.8561,243.0814 499.3741,244.2244 501.0141,243.9934 C502.6551,243.7634 503.7981,242.2464 503.5671,240.6054" id="Fill-95" fill="#00EFFF"></path>
                <path d="M407.0026,415.749 C406.7726,414.108 405.2556,412.965 403.6146,413.196 C401.9736,413.426 400.8306,414.943 401.0616,416.584 C401.2926,418.225 402.8096,419.368 404.4496,419.137 C406.0906,418.907 407.2336,417.39 407.0026,415.749" id="Fill-97" fill="#00EFFF"></path>
                <path d="M367.3923,421.3159 C367.1623,419.6749 365.6443,418.5319 364.0043,418.7629 C362.3633,418.9929 361.2203,420.5099 361.4513,422.1509 C361.6813,423.7919 363.1983,424.9349 364.8393,424.7039 C366.4793,424.4739 367.6223,422.9569 367.3923,421.3159" id="Fill-99" fill="#00EFFF"></path>
                <path d="M327.7814,426.8828 C327.5514,425.2418 326.0334,424.0988 324.3934,424.3298 C322.7524,424.5598 321.6094,426.0768 321.8404,427.7178 C322.0704,429.3588 323.5874,430.5018 325.2284,430.2708 C326.8694,430.0408 328.0124,428.5238 327.7814,426.8828" id="Fill-101" fill="#00EFFF"></path>
                <path d="M288.1711,432.4497 C287.9401,430.8087 286.4231,429.6657 284.7821,429.8967 C283.1421,430.1267 281.9991,431.6437 282.2291,433.2847 C282.4601,434.9257 283.9771,436.0687 285.6181,435.8377 C287.2581,435.6077 288.4011,434.0907 288.1711,432.4497" id="Fill-103" fill="#00EFFF"></path>
                <path d="M248.5602,438.0165 C248.3302,436.3755 246.8122,435.2325 245.1722,435.4635 C243.5312,435.6935 242.3882,437.2105 242.6182,438.8515 C242.8492,440.4925 244.3662,441.6355 246.0072,441.4045 C247.6472,441.1745 248.7902,439.6575 248.5602,438.0165" id="Fill-105" fill="#00EFFF"></path>
                <path d="M401.4362,376.1381 C401.2062,374.4971 399.6882,373.3541 398.0482,373.5851 C396.4072,373.8151 395.2642,375.3321 395.4942,376.9731 C395.7252,378.6141 397.2422,379.7571 398.8832,379.5261 C400.5232,379.2961 401.6662,377.7791 401.4362,376.1381" id="Fill-107" fill="#00EFFF"></path>
                <path d="M361.8254,381.705 C361.5954,380.064 360.0774,378.921 358.4374,379.152 C356.7964,379.382 355.6534,380.899 355.8844,382.54 C356.1144,384.181 357.6314,385.324 359.2724,385.094 C360.9124,384.863 362.0554,383.346 361.8254,381.705" id="Fill-109" fill="#00EFFF"></path>
                <path d="M322.2145,387.2719 C321.9845,385.6309 320.4665,384.4879 318.8265,384.7189 C317.1855,384.9489 316.0425,386.4659 316.2735,388.1069 C316.5035,389.7479 318.0205,390.8909 319.6615,390.6609 C321.3015,390.4299 322.4455,388.9129 322.2145,387.2719" id="Fill-111" fill="#00EFFF"></path>
                <path d="M282.6042,392.8388 C282.3732,391.1978 280.8562,390.0548 279.2152,390.2858 C277.5752,390.5168 276.4322,392.0328 276.6622,393.6738 C276.8932,395.3148 278.4102,396.4578 280.0502,396.2278 C281.6912,395.9968 282.8342,394.4798 282.6042,392.8388" id="Fill-113" fill="#00EFFF"></path>
                <path d="M242.9933,398.4057 C242.7633,396.7647 241.2453,395.6217 239.6053,395.8527 C237.9643,396.0837 236.8213,397.5997 237.0513,399.2407 C237.2823,400.8817 238.7993,402.0247 240.4403,401.7947 C242.0803,401.5637 243.2233,400.0467 242.9933,398.4057" id="Fill-115" fill="#00EFFF"></path>
                <path d="M395.8693,336.5273 C395.6393,334.8863 394.1213,333.7433 392.4813,333.9743 C390.8403,334.2053 389.6973,335.7213 389.9273,337.3623 C390.1583,339.0033 391.6753,340.1463 393.3163,339.9163 C394.9563,339.6853 396.0993,338.1683 395.8693,336.5273" id="Fill-117" fill="#00EFFF"></path>
                <path d="M356.2585,342.0947 C356.0285,340.4537 354.5105,339.3107 352.8705,339.5407 C351.2295,339.7717 350.0865,341.2887 350.3175,342.9297 C350.5475,344.5707 352.0645,345.7137 353.7055,345.4827 C355.3455,345.2527 356.4885,343.7357 356.2585,342.0947" id="Fill-119" fill="#00EFFF"></path>
                <path d="M316.6476,347.6616 C316.4176,346.0206 314.8996,344.8776 313.2596,345.1076 C311.6186,345.3386 310.4756,346.8556 310.7066,348.4966 C310.9366,350.1376 312.4536,351.2806 314.0946,351.0496 C315.7346,350.8196 316.8786,349.3026 316.6476,347.6616" id="Fill-121" fill="#00EFFF"></path>
                <path d="M277.0373,353.2284 C276.8063,351.5874 275.2893,350.4444 273.6483,350.6754 C272.0083,350.9054 270.8653,352.4224 271.0953,354.0634 C271.3263,355.7044 272.8433,356.8474 274.4833,356.6164 C276.1243,356.3864 277.2673,354.8694 277.0373,353.2284" id="Fill-123" fill="#00EFFF"></path>
                <path d="M237.4264,358.7953 C237.1964,357.1543 235.6784,356.0113 234.0374,356.2423 C232.3974,356.4723 231.2544,357.9893 231.4844,359.6303 C231.7154,361.2713 233.2324,362.4143 234.8734,362.1833 C236.5134,361.9533 237.6564,360.4363 237.4264,358.7953" id="Fill-125" fill="#00EFFF"></path>
                <path d="M311.0807,308.0507 C310.8507,306.4097 309.3327,305.2667 307.6927,305.4977 C306.0517,305.7277 304.9087,307.2447 305.1397,308.8857 C305.3697,310.5267 306.8867,311.6697 308.5277,311.4387 C310.1677,311.2087 311.3107,309.6917 311.0807,308.0507" id="Fill-127" fill="#00EFFF"></path>
                <path d="M271.4699,313.6176 C271.2399,311.9766 269.7219,310.8336 268.0819,311.0646 C266.4409,311.2946 265.2979,312.8116 265.5289,314.4526 C265.7589,316.0936 267.2759,317.2366 268.9169,317.0056 C270.5579,316.7756 271.7009,315.2586 271.4699,313.6176" id="Fill-129" fill="#00EFFF"></path>
                <path d="M231.8595,319.1845 C231.6285,317.5435 230.1115,316.4005 228.4705,316.6315 C226.8305,316.8615 225.6875,318.3785 225.9175,320.0195 C226.1485,321.6605 227.6655,322.8035 229.3065,322.5725 C230.9465,322.3425 232.0895,320.8255 231.8595,319.1845" id="Fill-131" fill="#00EFFF"></path>
                <path d="M384.7355,257.3061 C384.5045,255.6651 382.9875,254.5221 381.3465,254.7531 C379.7065,254.9831 378.5635,256.5001 378.7935,258.1411 C379.0245,259.7821 380.5415,260.9251 382.1825,260.6941 C383.8225,260.4641 384.9655,258.9471 384.7355,257.3061" id="Fill-133" fill="#00EFFF"></path>
                <path d="M345.1247,262.873 C344.8947,261.232 343.3767,260.089 341.7367,260.32 C340.0957,260.55 338.9527,262.067 339.1837,263.708 C339.4137,265.349 340.9307,266.492 342.5717,266.261 C344.2117,266.031 345.3547,264.514 345.1247,262.873" id="Fill-135" fill="#00EFFF"></path>
                <path d="M226.2926,279.5737 C226.0616,277.9327 224.5446,276.7897 222.9036,277.0207 C221.2636,277.2507 220.1206,278.7677 220.3506,280.4087 C220.5816,282.0497 222.0986,283.1927 223.7396,282.9617 C225.3796,282.7317 226.5226,281.2147 226.2926,279.5737" id="Fill-137" fill="#00EFFF"></path>
                <path d="M208.9494,443.5834 C208.7194,441.9424 207.2014,440.7994 205.5614,441.0304 C203.9204,441.2604 202.7774,442.7774 203.0084,444.4184 C203.2384,446.0594 204.7554,447.2024 206.3964,446.9724 C208.0364,446.7414 209.1794,445.2244 208.9494,443.5834" id="Fill-139" fill="#00EFFF"></path>
                <path d="M169.3385,449.1503 C169.1085,447.5093 167.5905,446.3663 165.9505,446.5973 C164.3095,446.8273 163.1665,448.3443 163.3975,449.9853 C163.6275,451.6263 165.1445,452.7693 166.7855,452.5393 C168.4255,452.3083 169.5695,450.7913 169.3385,449.1503" id="Fill-141" fill="#00EFFF"></path>
                <path d="M50.5065,465.8515 C50.2765,464.2105 48.7585,463.0675 47.1185,463.2975 C45.4775,463.5285 44.3345,465.0455 44.5655,466.6865 C44.7955,468.3275 46.3125,469.4705 47.9535,469.2395 C49.5935,469.0095 50.7365,467.4925 50.5065,465.8515" id="Fill-143" fill="#00EFFF"></path>
                <path d="M163.7717,409.54 C163.5417,407.899 162.0237,406.756 160.3837,406.986 C158.7427,407.217 157.5997,408.734 157.8307,410.375 C158.0607,412.016 159.5777,413.159 161.2187,412.928 C162.8587,412.698 164.0027,411.181 163.7717,409.54" id="Fill-145" fill="#00EFFF"></path>
                <path d="M124.1613,415.1069 C123.9303,413.4659 122.4133,412.3229 120.7723,412.5539 C119.1323,412.7839 117.9893,414.3009 118.2193,415.9419 C118.4503,417.5829 119.9673,418.7259 121.6073,418.4949 C123.2483,418.2649 124.3913,416.7479 124.1613,415.1069" id="Fill-147" fill="#00EFFF"></path>
                <path d="M84.5505,420.6738 C84.3205,419.0328 82.8025,417.8898 81.1625,418.1208 C79.5215,418.3508 78.3785,419.8678 78.6085,421.5088 C78.8395,423.1498 80.3565,424.2928 81.9975,424.0618 C83.6375,423.8318 84.7805,422.3148 84.5505,420.6738" id="Fill-149" fill="#00EFFF"></path>
                <path d="M197.8156,364.3622 C197.5856,362.7212 196.0676,361.5782 194.4276,361.8092 C192.7866,362.0392 191.6436,363.5562 191.8746,365.1972 C192.1046,366.8382 193.6216,367.9812 195.2626,367.7502 C196.9026,367.5202 198.0456,366.0032 197.8156,364.3622" id="Fill-151" fill="#00EFFF"></path>
                <path d="M78.9836,381.0629 C78.7526,379.4219 77.2356,378.2789 75.5946,378.5099 C73.9546,378.7399 72.8116,380.2569 73.0416,381.8979 C73.2726,383.5389 74.7896,384.6819 76.4306,384.4509 C78.0706,384.2209 79.2136,382.7039 78.9836,381.0629" id="Fill-153" fill="#00EFFF"></path>
                <path d="M192.2487,324.7514 C192.0187,323.1104 190.5007,321.9674 188.8607,322.1984 C187.2197,322.4284 186.0767,323.9454 186.3077,325.5864 C186.5377,327.2274 188.0547,328.3704 189.6957,328.1394 C191.3357,327.9094 192.4787,326.3924 192.2487,324.7514" id="Fill-155" fill="#00EFFF"></path>
                <path d="M152.6379,330.3183 C152.4079,328.6773 150.8899,327.5343 149.2499,327.7653 C147.6089,327.9953 146.4659,329.5123 146.6969,331.1533 C146.9269,332.7943 148.4439,333.9373 150.0849,333.7063 C151.7249,333.4763 152.8679,331.9593 152.6379,330.3183" id="Fill-157" fill="#00EFFF"></path>
                <path d="M33.8058,347.019 C33.5758,345.378 32.0578,344.235 30.4178,344.466 C28.7768,344.696 27.6338,346.213 27.8648,347.854 C28.0948,349.495 29.6118,350.638 31.2528,350.408 C32.8928,350.177 34.0358,348.66 33.8058,347.019" id="Fill-159" fill="#00EFFF"></path>
                <path d="M147.071,290.7074 C146.841,289.0664 145.323,287.9234 143.683,288.1544 C142.042,288.3844 140.899,289.9014 141.13,291.5424 C141.36,293.1834 142.877,294.3264 144.518,294.0964 C146.158,293.8654 147.301,292.3484 147.071,290.7074" id="Fill-161" fill="#00EFFF"></path>
                <path d="M107.4601,296.2743 C107.2301,294.6333 105.7121,293.4903 104.0721,293.7213 C102.4311,293.9513 101.2881,295.4683 101.5191,297.1093 C101.7491,298.7503 103.2661,299.8933 104.9071,299.6633 C106.5471,299.4323 107.6911,297.9153 107.4601,296.2743" id="Fill-163" fill="#00EFFF"></path>
                <path d="M735.6647,167.5932 C735.4347,165.9522 733.9177,164.8092 732.2767,165.0392 C730.6357,165.2702 729.4927,166.7872 729.7237,168.4282 C729.9537,170.0692 731.4717,171.2122 733.1117,170.9812 C734.7527,170.7512 735.8947,169.2342 735.6647,167.5932" id="Fill-167" fill="#00EFFF"></path>
                <path d="M696.0544,173.1601 C695.8244,171.5191 694.3064,170.3761 692.6654,170.6071 C691.0254,170.8371 689.8824,172.3541 690.1134,173.9951 C690.3434,175.6361 691.8604,176.7791 693.5004,176.5481 C695.1414,176.3181 696.2844,174.8011 696.0544,173.1601" id="Fill-169" fill="#00EFFF"></path>
                <path d="M656.4431,178.727 C656.2131,177.086 654.6961,175.943 653.0551,176.174 C651.4151,176.404 650.2711,177.921 650.5021,179.562 C650.7321,181.203 652.2501,182.346 653.8901,182.115 C655.5311,181.885 656.6741,180.368 656.4431,178.727" id="Fill-171" fill="#00EFFF"></path>
                <path d="M616.8327,184.2939 C616.6027,182.6529 615.0857,181.5099 613.4437,181.7409 C611.8037,181.9709 610.6607,183.4879 610.8917,185.1289 C611.1217,186.7699 612.6387,187.9129 614.2797,187.6819 C615.9207,187.4519 617.0627,185.9349 616.8327,184.2939" id="Fill-173" fill="#00EFFF"></path>
                <path d="M730.0983,127.9824 C729.8683,126.3414 728.3503,125.1984 726.7093,125.4294 C725.0693,125.6594 723.9253,127.1764 724.1573,128.8174 C724.3873,130.4584 725.9043,131.6014 727.5443,131.3704 C729.1853,131.1404 730.3283,129.6234 730.0983,127.9824" id="Fill-177" fill="#00EFFF"></path>
                <path d="M690.487,133.5492 C690.257,131.9082 688.74,130.7652 687.099,130.9962 C685.459,131.2262 684.315,132.7432 684.546,134.3842 C684.776,136.0252 686.294,137.1682 687.934,136.9372 C689.575,136.7072 690.717,135.1902 690.487,133.5492" id="Fill-179" fill="#00EFFF"></path>
                <path d="M650.8766,139.1161 C650.6466,137.4751 649.1286,136.3321 647.4876,136.5631 C645.8476,136.7931 644.7046,138.3101 644.9356,139.9511 C645.1656,141.5921 646.6826,142.7351 648.3226,142.5041 C649.9636,142.2741 651.1066,140.7571 650.8766,139.1161" id="Fill-181" fill="#00EFFF"></path>
                <path d="M611.2663,144.683 C611.0353,143.042 609.5183,141.899 607.8773,142.13 C606.2373,142.36 605.0933,143.877 605.3243,145.518 C605.5543,147.159 607.0723,148.302 608.7123,148.071 C610.3533,147.841 611.4963,146.324 611.2663,144.683" id="Fill-183" fill="#00EFFF"></path>
                <path d="M724.5309,88.3715 C724.3009,86.7305 722.7839,85.5875 721.1429,85.8185 C719.5019,86.0485 718.3589,87.5655 718.5899,89.2065 C718.8199,90.8475 720.3379,91.9905 721.9779,91.7595 C723.6189,91.5295 724.7609,90.0125 724.5309,88.3715" id="Fill-187" fill="#00EFFF"></path>
                <path d="M684.9206,93.9384 C684.6906,92.2974 683.1726,91.1544 681.5316,91.3854 C679.8916,91.6154 678.7476,93.1324 678.9796,94.7734 C679.2096,96.4144 680.7266,97.5574 682.3666,97.3264 C684.0076,97.0964 685.1506,95.5794 684.9206,93.9384" id="Fill-189" fill="#00EFFF"></path>
                <path d="M645.3093,99.5053 C645.0793,97.8643 643.5623,96.7213 641.9213,96.9523 C640.2813,97.1823 639.1373,98.6993 639.3683,100.3403 C639.5983,101.9813 641.1163,103.1243 642.7563,102.8943 C644.3973,102.6633 645.5403,101.1463 645.3093,99.5053" id="Fill-191" fill="#00EFFF"></path>
                <path d="M605.6989,105.0722 C605.4689,103.4312 603.9519,102.2882 602.3099,102.5192 C600.6699,102.7492 599.5269,104.2662 599.7579,105.9072 C599.9879,107.5482 601.5049,108.6912 603.1449,108.4612 C604.7869,108.2302 605.9289,106.7132 605.6989,105.0722" id="Fill-193" fill="#00EFFF"></path>
                <path d="M718.9645,48.7607 C718.7345,47.1197 717.2165,45.9767 715.5755,46.2077 C713.9355,46.4377 712.7915,47.9547 713.0225,49.5957 C713.2535,51.2367 714.7705,52.3797 716.4105,52.1497 C718.0515,51.9187 719.1945,50.4017 718.9645,48.7607" id="Fill-197" fill="#00EFFF"></path>
                <path d="M679.3532,54.3276 C679.1232,52.6866 677.6062,51.5436 675.9652,51.7746 C674.3252,52.0056 673.1812,53.5216 673.4122,55.1626 C673.6422,56.8036 675.1602,57.9466 676.8002,57.7166 C678.4412,57.4856 679.5832,55.9686 679.3532,54.3276" id="Fill-199" fill="#00EFFF"></path>
                <path d="M639.7429,59.8945 C639.5129,58.2535 637.9949,57.1105 636.3539,57.3415 C634.7139,57.5725 633.5709,59.0885 633.8019,60.7295 C634.0319,62.3705 635.5489,63.5135 637.1889,63.2835 C638.8299,63.0525 639.9729,61.5355 639.7429,59.8945" id="Fill-201" fill="#00EFFF"></path>
                <path d="M600.1325,65.4618 C599.9015,63.8208 598.3845,62.6778 596.7435,62.9078 C595.1035,63.1388 593.9595,64.6558 594.1905,66.2968 C594.4205,67.9378 595.9385,69.0808 597.5785,68.8498 C599.2195,68.6198 600.3625,67.1028 600.1325,65.4618" id="Fill-203" fill="#00EFFF"></path>
                <path d="M713.3972,9.1503 C713.1672,7.5093 711.6502,6.3663 710.0082,6.5963 C708.3682,6.8273 707.2252,8.3443 707.4562,9.9853 C707.6862,11.6263 709.2032,12.7693 710.8442,12.5383 C712.4852,12.3083 713.6272,10.7913 713.3972,9.1503" id="Fill-208" fill="#00EFFF"></path>
                <path d="M673.7868,14.7172 C673.5568,13.0762 672.0388,11.9332 670.3978,12.1642 C668.7578,12.3942 667.6138,13.9112 667.8458,15.5522 C668.0758,17.1932 669.5928,18.3362 671.2328,18.1052 C672.8738,17.8752 674.0168,16.3582 673.7868,14.7172" id="Fill-210" fill="#00EFFF"></path>
                <path d="M634.1755,20.2841 C633.9455,18.6431 632.4285,17.5001 630.7875,17.7311 C629.1475,17.9611 628.0035,19.4781 628.2345,21.1191 C628.4645,22.7601 629.9825,23.9031 631.6225,23.6721 C633.2635,23.4421 634.4055,21.9251 634.1755,20.2841" id="Fill-212" fill="#00EFFF"></path>
                <path d="M594.5651,25.851 C594.3351,24.21 592.8171,23.067 591.1761,23.298 C589.5361,23.528 588.3931,25.045 588.6241,26.686 C588.8541,28.327 590.3711,29.47 592.0111,29.239 C593.6531,29.009 594.7951,27.492 594.5651,25.851" id="Fill-214" fill="#00EFFF"></path>
                <path d="M577.2224,189.8608 C576.9924,188.2198 575.4744,187.0768 573.8334,187.3078 C572.1934,187.5378 571.0494,189.0548 571.2814,190.6958 C571.5114,192.3368 573.0284,193.4798 574.6684,193.2488 C576.3094,193.0188 577.4524,191.5018 577.2224,189.8608" id="Fill-216" fill="#00EFFF"></path>
                <path d="M537.611,195.4277 C537.381,193.7867 535.864,192.6437 534.223,192.8747 C532.583,193.1047 531.439,194.6217 531.67,196.2627 C531.9,197.9037 533.418,199.0467 535.058,198.8157 C536.699,198.5857 537.841,197.0687 537.611,195.4277" id="Fill-218" fill="#00EFFF"></path>
                <path d="M498.0007,200.9946 C497.7707,199.3536 496.2527,198.2106 494.6117,198.4416 C492.9717,198.6716 491.8287,200.1886 492.0597,201.8296 C492.2897,203.4706 493.8067,204.6136 495.4467,204.3826 C497.0887,204.1526 498.2307,202.6356 498.0007,200.9946" id="Fill-220" fill="#00EFFF"></path>
                <path d="M458.3903,206.5615 C458.1593,204.9205 456.6423,203.7775 455.0013,204.0085 C453.3613,204.2385 452.2173,205.7555 452.4483,207.3965 C452.6783,209.0375 454.1963,210.1805 455.8363,209.9495 C457.4773,209.7195 458.6203,208.2025 458.3903,206.5615" id="Fill-222" fill="#00EFFF"></path>
                <path d="M418.779,212.1283 C418.549,210.4873 417.032,209.3443 415.391,209.5753 C413.75,209.8053 412.607,211.3223 412.838,212.9633 C413.068,214.6043 414.586,215.7473 416.226,215.5163 C417.867,215.2863 419.009,213.7693 418.779,212.1283" id="Fill-224" fill="#00EFFF"></path>
                <path d="M571.655,150.2499 C571.425,148.6089 569.908,147.4659 568.267,147.6969 C566.626,147.9269 565.483,149.4439 565.714,151.0849 C565.944,152.7259 567.462,153.8689 569.102,153.6379 C570.743,153.4079 571.885,151.8909 571.655,150.2499" id="Fill-226" fill="#00EFFF"></path>
                <path d="M532.0446,155.8168 C531.8146,154.1758 530.2966,153.0328 528.6556,153.2638 C527.0156,153.4938 525.8716,155.0108 526.1036,156.6518 C526.3336,158.2928 527.8506,159.4358 529.4906,159.2048 C531.1316,158.9748 532.2746,157.4578 532.0446,155.8168" id="Fill-228" fill="#00EFFF"></path>
                <path d="M492.4333,161.3837 C492.2033,159.7427 490.6863,158.5997 489.0453,158.8307 C487.4053,159.0607 486.2613,160.5777 486.4923,162.2187 C486.7223,163.8597 488.2403,165.0027 489.8803,164.7727 C491.5213,164.5417 492.6643,163.0247 492.4333,161.3837" id="Fill-230" fill="#00EFFF"></path>
                <path d="M452.8229,166.9506 C452.5929,165.3096 451.0759,164.1666 449.4339,164.3976 C447.7939,164.6276 446.6509,166.1446 446.8819,167.7856 C447.1119,169.4266 448.6289,170.5696 450.2689,170.3396 C451.9109,170.1086 453.0529,168.5916 452.8229,166.9506" id="Fill-232" fill="#00EFFF"></path>
                <path d="M413.2126,172.5175 C412.9826,170.8765 411.4646,169.7335 409.8236,169.9645 C408.1836,170.1945 407.0396,171.7115 407.2706,173.3525 C407.5016,174.9935 409.0186,176.1365 410.6586,175.9065 C412.2996,175.6755 413.4426,174.1585 413.2126,172.5175" id="Fill-234" fill="#00EFFF"></path>
                <path d="M566.0886,110.6391 C565.8586,108.9981 564.3406,107.8551 562.6996,108.0861 C561.0596,108.3161 559.9156,109.8331 560.1466,111.4741 C560.3776,113.1151 561.8946,114.2581 563.5346,114.0281 C565.1756,113.7971 566.3186,112.2801 566.0886,110.6391" id="Fill-236" fill="#00EFFF"></path>
                <path d="M526.4772,116.206 C526.2472,114.565 524.7302,113.422 523.0892,113.653 C521.4492,113.884 520.3052,115.4 520.5362,117.041 C520.7662,118.682 522.2842,119.825 523.9242,119.595 C525.5652,119.364 526.7072,117.847 526.4772,116.206" id="Fill-238" fill="#00EFFF"></path>
                <path d="M486.8669,121.7729 C486.6369,120.1319 485.1189,118.9889 483.4779,119.2199 C481.8379,119.4509 480.6949,120.9669 480.9259,122.6079 C481.1559,124.2489 482.6729,125.3919 484.3129,125.1619 C485.9539,124.9309 487.0969,123.4139 486.8669,121.7729" id="Fill-240" fill="#00EFFF"></path>
                <path d="M447.2565,127.3403 C447.0255,125.6993 445.5085,124.5563 443.8675,124.7863 C442.2275,125.0173 441.0835,126.5343 441.3145,128.1753 C441.5445,129.8163 443.0625,130.9593 444.7025,130.7283 C446.3435,130.4983 447.4865,128.9813 447.2565,127.3403" id="Fill-242" fill="#00EFFF"></path>
                <path d="M407.6452,132.9072 C407.4152,131.2662 405.8982,130.1232 404.2572,130.3532 C402.6162,130.5842 401.4732,132.1012 401.7042,133.7422 C401.9342,135.3832 403.4512,136.5262 405.0922,136.2952 C406.7332,136.0652 407.8752,134.5482 407.6452,132.9072" id="Fill-244" fill="#00EFFF"></path>
                <path d="M560.5212,71.0287 C560.2912,69.3877 558.7742,68.2447 557.1322,68.4747 C555.4922,68.7057 554.3492,70.2227 554.5802,71.8637 C554.8102,73.5047 556.3272,74.6477 557.9682,74.4167 C559.6092,74.1867 560.7512,72.6697 560.5212,71.0287" id="Fill-246" fill="#00EFFF"></path>
                <path d="M520.9108,76.5956 C520.6808,74.9546 519.1628,73.8116 517.5218,74.0426 C515.8818,74.2726 514.7378,75.7896 514.9698,77.4306 C515.1998,79.0716 516.7168,80.2146 518.3568,79.9836 C519.9978,79.7536 521.1408,78.2366 520.9108,76.5956" id="Fill-248" fill="#00EFFF"></path>
                <path d="M481.2995,82.1625 C481.0695,80.5215 479.5525,79.3785 477.9115,79.6095 C476.2715,79.8395 475.1275,81.3565 475.3585,82.9975 C475.5885,84.6385 477.1065,85.7815 478.7465,85.5505 C480.3875,85.3205 481.5295,83.8035 481.2995,82.1625" id="Fill-250" fill="#00EFFF"></path>
                <path d="M441.6891,87.7294 C441.4591,86.0884 439.9411,84.9454 438.3001,85.1764 C436.6601,85.4064 435.5171,86.9234 435.7481,88.5644 C435.9781,90.2054 437.4951,91.3484 439.1351,91.1174 C440.7771,90.8874 441.9191,89.3704 441.6891,87.7294" id="Fill-252" fill="#00EFFF"></path>
                <path d="M402.0783,93.2963 C401.8483,91.6553 400.3303,90.5123 398.6903,90.7433 C397.0493,90.9733 395.9063,92.4903 396.1373,94.1313 C396.3673,95.7723 397.8843,96.9153 399.5253,96.6843 C401.1653,96.4543 402.3083,94.9373 402.0783,93.2963" id="Fill-254" fill="#00EFFF"></path>
                <path d="M554.9548,31.4179 C554.7238,29.7769 553.2068,28.6339 551.5658,28.8649 C549.9258,29.0949 548.7818,30.6119 549.0128,32.2529 C549.2438,33.8939 550.7608,35.0369 552.4008,34.8059 C554.0418,34.5759 555.1848,33.0589 554.9548,31.4179" id="Fill-256" fill="#00EFFF"></path>
                <path d="M515.3434,36.9848 C515.1134,35.3438 513.5964,34.2008 511.9554,34.4318 C510.3144,34.6618 509.1714,36.1788 509.4024,37.8198 C509.6324,39.4608 511.1504,40.6038 512.7904,40.3728 C514.4314,40.1428 515.5734,38.6258 515.3434,36.9848" id="Fill-258" fill="#00EFFF"></path>
                <path d="M475.7331,42.5517 C475.5031,40.9107 473.9851,39.7677 472.3441,39.9987 C470.7041,40.2287 469.5611,41.7457 469.7921,43.3867 C470.0221,45.0277 471.5391,46.1707 473.1791,45.9397 C474.8201,45.7097 475.9631,44.1927 475.7331,42.5517" id="Fill-260" fill="#00EFFF"></path>
                <path d="M379.1686,217.6952 C378.9376,216.0542 377.4206,214.9112 375.7796,215.1422 C374.1396,215.3722 372.9966,216.8892 373.2266,218.5302 C373.4576,220.1712 374.9746,221.3142 376.6156,221.0832 C378.2556,220.8532 379.3986,219.3362 379.1686,217.6952" id="Fill-262" fill="#00EFFF"></path>
                <path d="M339.5578,223.2621 C339.3278,221.6211 337.8098,220.4781 336.1698,220.7091 C334.5288,220.9391 333.3858,222.4561 333.6158,224.0971 C333.8468,225.7381 335.3638,226.8811 337.0048,226.6511 C338.6448,226.4201 339.7878,224.9031 339.5578,223.2621" id="Fill-264" fill="#00EFFF"></path>
                <path d="M299.947,228.829 C299.717,227.188 298.199,226.045 296.559,226.276 C294.918,226.506 293.775,228.023 294.006,229.664 C294.236,231.305 295.753,232.448 297.394,232.218 C299.034,231.987 300.177,230.47 299.947,228.829" id="Fill-266" fill="#00EFFF"></path>
                <path d="M260.3361,234.3959 C260.1061,232.7549 258.5881,231.6119 256.9481,231.8429 C255.3071,232.0729 254.1641,233.5899 254.3951,235.2309 C254.6251,236.8719 256.1421,238.0149 257.7831,237.7849 C259.4231,237.5539 260.5671,236.0369 260.3361,234.3959" id="Fill-268" fill="#00EFFF"></path>
                <path d="M220.7258,239.9628 C220.4948,238.3218 218.9778,237.1788 217.3368,237.4098 C215.6968,237.6408 214.5538,239.1568 214.7838,240.7978 C215.0148,242.4388 216.5318,243.5818 218.1718,243.3518 C219.8128,243.1208 220.9558,241.6038 220.7258,239.9628" id="Fill-270" fill="#00EFFF"></path>
                <path d="M373.6017,178.0844 C373.3707,176.4434 371.8537,175.3004 370.2127,175.5314 C368.5727,175.7624 367.4297,177.2784 367.6597,178.9194 C367.8907,180.5604 369.4077,181.7034 371.0477,181.4734 C372.6887,181.2424 373.8317,179.7254 373.6017,178.0844" id="Fill-272" fill="#00EFFF"></path>
                <path d="M333.9909,183.6513 C333.7609,182.0103 332.2429,180.8673 330.6029,181.0983 C328.9619,181.3293 327.8189,182.8453 328.0489,184.4863 C328.2799,186.1273 329.7969,187.2703 331.4379,187.0403 C333.0779,186.8093 334.2209,185.2923 333.9909,183.6513" id="Fill-274" fill="#00EFFF"></path>
                <path d="M294.3801,189.2187 C294.1501,187.5777 292.6321,186.4347 290.9921,186.6647 C289.3511,186.8957 288.2081,188.4127 288.4391,190.0537 C288.6691,191.6947 290.1861,192.8377 291.8271,192.6067 C293.4671,192.3767 294.6101,190.8597 294.3801,189.2187" id="Fill-276" fill="#00EFFF"></path>
                <path d="M254.7692,194.7856 C254.5392,193.1446 253.0212,192.0016 251.3812,192.2316 C249.7402,192.4626 248.5972,193.9796 248.8282,195.6206 C249.0582,197.2616 250.5752,198.4046 252.2162,198.1736 C253.8562,197.9436 255.0002,196.4266 254.7692,194.7856" id="Fill-278" fill="#00EFFF"></path>
                <path d="M215.1589,200.3525 C214.9279,198.7115 213.4109,197.5685 211.7699,197.7995 C210.1299,198.0295 208.9869,199.5465 209.2169,201.1875 C209.4479,202.8285 210.9649,203.9715 212.6049,203.7405 C214.2459,203.5105 215.3889,201.9935 215.1589,200.3525" id="Fill-280" fill="#00EFFF"></path>
                <path d="M368.0349,138.4741 C367.8039,136.8331 366.2869,135.6901 364.6459,135.9211 C363.0059,136.1511 361.8629,137.6681 362.0929,139.3091 C362.3239,140.9501 363.8409,142.0931 365.4809,141.8621 C367.1219,141.6321 368.2649,140.1151 368.0349,138.4741" id="Fill-282" fill="#00EFFF"></path>
                <path d="M328.424,144.0409 C328.194,142.3999 326.676,141.2569 325.035,141.4879 C323.395,141.7179 322.252,143.2349 322.482,144.8759 C322.713,146.5169 324.23,147.6599 325.871,147.4289 C327.511,147.1989 328.654,145.6819 328.424,144.0409" id="Fill-284" fill="#00EFFF"></path>
                <path d="M288.8132,149.6078 C288.5832,147.9668 287.0652,146.8238 285.4252,147.0548 C283.7842,147.2848 282.6412,148.8018 282.8722,150.4428 C283.1022,152.0838 284.6192,153.2268 286.2602,152.9958 C287.9002,152.7658 289.0432,151.2488 288.8132,149.6078" id="Fill-286" fill="#00EFFF"></path>
                <path d="M249.2023,155.1747 C248.9723,153.5337 247.4543,152.3907 245.8143,152.6217 C244.1733,152.8517 243.0303,154.3687 243.2613,156.0097 C243.4913,157.6507 245.0083,158.7937 246.6493,158.5627 C248.2893,158.3327 249.4323,156.8157 249.2023,155.1747" id="Fill-288" fill="#00EFFF"></path>
                <path d="M209.5915,160.7416 C209.3615,159.1006 207.8435,157.9576 206.2035,158.1886 C204.5625,158.4186 203.4195,159.9356 203.6505,161.5766 C203.8805,163.2176 205.3975,164.3606 207.0385,164.1296 C208.6795,163.8996 209.8225,162.3826 209.5915,160.7416" id="Fill-290" fill="#00EFFF"></path>
                <path d="M283.2463,109.997 C283.0163,108.356 281.4983,107.213 279.8583,107.444 C278.2173,107.674 277.0743,109.191 277.3053,110.832 C277.5353,112.473 279.0523,113.616 280.6933,113.385 C282.3333,113.155 283.4763,111.638 283.2463,109.997" id="Fill-292" fill="#00EFFF"></path>
                <path d="M243.6354,115.5639 C243.4054,113.9229 241.8874,112.7799 240.2474,113.0109 C238.6064,113.2409 237.4634,114.7579 237.6944,116.3989 C237.9244,118.0399 239.4414,119.1829 241.0824,118.9519 C242.7224,118.7219 243.8654,117.2049 243.6354,115.5639" id="Fill-294" fill="#00EFFF"></path>
                <path d="M204.0246,121.1308 C203.7946,119.4898 202.2766,118.3468 200.6366,118.5778 C198.9956,118.8078 197.8526,120.3248 198.0836,121.9658 C198.3136,123.6068 199.8306,124.7498 201.4716,124.5188 C203.1126,124.2888 204.2556,122.7718 204.0246,121.1308" id="Fill-296" fill="#00EFFF"></path>
                <path d="M356.9006,59.2524 C356.6706,57.6114 355.1526,56.4684 353.5126,56.6994 C351.8716,56.9294 350.7286,58.4464 350.9596,60.0874 C351.1896,61.7284 352.7066,62.8714 354.3476,62.6404 C355.9876,62.4104 357.1316,60.8934 356.9006,59.2524" id="Fill-298" fill="#00EFFF"></path>
                <path d="M317.2902,64.8193 C317.0592,63.1783 315.5422,62.0353 313.9012,62.2663 C312.2612,62.4963 311.1182,64.0133 311.3482,65.6543 C311.5792,67.2953 313.0962,68.4383 314.7372,68.2073 C316.3772,67.9773 317.5202,66.4603 317.2902,64.8193" id="Fill-300" fill="#00EFFF"></path>
                <path d="M198.4577,81.5199 C198.2277,79.8789 196.7097,78.7359 195.0697,78.9669 C193.4287,79.1969 192.2857,80.7139 192.5167,82.3549 C192.7467,83.9959 194.2637,85.1389 195.9047,84.9089 C197.5447,84.6779 198.6887,83.1609 198.4577,81.5199" id="Fill-302" fill="#00EFFF"></path>
                <path d="M181.1149,245.5297 C180.8849,243.8887 179.3669,242.7457 177.7269,242.9767 C176.0859,243.2077 174.9429,244.7237 175.1729,246.3647 C175.4039,248.0057 176.9209,249.1487 178.5619,248.9187 C180.2019,248.6877 181.3449,247.1707 181.1149,245.5297" id="Fill-304" fill="#00EFFF"></path>
                <path d="M141.5041,251.0971 C141.2741,249.4561 139.7561,248.3131 138.1161,248.5431 C136.4751,248.7741 135.3321,250.2911 135.5631,251.9321 C135.7931,253.5731 137.3101,254.7161 138.9511,254.4851 C140.5911,254.2551 141.7341,252.7381 141.5041,251.0971" id="Fill-306" fill="#00EFFF"></path>
                <path d="M22.672,267.7978 C22.442,266.1568 20.924,265.0138 19.284,265.2448 C17.643,265.4748 16.5,266.9918 16.73,268.6328 C16.961,270.2738 18.478,271.4168 20.119,271.1858 C21.759,270.9558 22.902,269.4388 22.672,267.7978" id="Fill-308" fill="#00EFFF"></path>
                <path d="M135.9372,211.4863 C135.7072,209.8453 134.1892,208.7023 132.5492,208.9333 C130.9082,209.1633 129.7652,210.6803 129.9962,212.3213 C130.2262,213.9623 131.7432,215.1053 133.3842,214.8743 C135.0242,214.6443 136.1672,213.1273 135.9372,211.4863" id="Fill-310" fill="#00EFFF"></path>
                <path d="M96.3263,217.0532 C96.0963,215.4122 94.5783,214.2692 92.9383,214.5002 C91.2973,214.7302 90.1543,216.2472 90.3853,217.8882 C90.6153,219.5292 92.1323,220.6722 93.7733,220.4412 C95.4133,220.2112 96.5573,218.6942 96.3263,217.0532" id="Fill-312" fill="#00EFFF"></path>
                <path d="M56.716,222.62 C56.485,220.979 54.968,219.836 53.327,220.067 C51.687,220.297 50.544,221.814 50.774,223.455 C51.005,225.096 52.522,226.239 54.162,226.008 C55.803,225.778 56.946,224.261 56.716,222.62" id="Fill-314" fill="#00EFFF"></path>
                <path d="M169.9811,166.3085 C169.7501,164.6675 168.2331,163.5245 166.5921,163.7555 C164.9521,163.9855 163.8091,165.5025 164.0391,167.1435 C164.2701,168.7845 165.7871,169.9275 167.4281,169.6965 C169.0681,169.4665 170.2111,167.9495 169.9811,166.3085" id="Fill-316" fill="#00EFFF"></path>
                <path d="M51.1486,183.0092 C50.9186,181.3682 49.4006,180.2252 47.7606,180.4562 C46.1196,180.6862 44.9766,182.2032 45.2076,183.8442 C45.4376,185.4852 46.9546,186.6282 48.5956,186.3972 C50.2366,186.1672 51.3796,184.6502 51.1486,183.0092" id="Fill-318" fill="#00EFFF"></path>
                <path d="M164.4142,126.6977 C164.1832,125.0567 162.6662,123.9137 161.0252,124.1447 C159.3852,124.3747 158.2422,125.8917 158.4722,127.5327 C158.7032,129.1737 160.2202,130.3167 161.8612,130.0857 C163.5012,129.8557 164.6442,128.3387 164.4142,126.6977" id="Fill-320" fill="#00EFFF"></path>
                <path d="M124.8034,132.2646 C124.5734,130.6236 123.0554,129.4806 121.4154,129.7116 C119.7744,129.9416 118.6314,131.4586 118.8614,133.0996 C119.0924,134.7406 120.6094,135.8836 122.2504,135.6536 C123.8904,135.4226 125.0334,133.9056 124.8034,132.2646" id="Fill-322" fill="#00EFFF"></path>
                <g id="Group-326" transform="translate(0.000000, 145.622000)">
                    <mask id="mask-2" fill="white">
                        <use xlink:href="#path-1"></use>
                    </mask>
                    <g id="Clip-325"></g>
                    <path d="M5.9714,3.3433 C5.7404,1.7023 4.2234,0.5593 2.5824,0.7903 C0.9424,1.0213 -0.2006,2.5373 0.0294,4.1783 C0.2604,5.8193 1.7774,6.9623 3.4174,6.7323 C5.0584,6.5013 6.2014,4.9843 5.9714,3.3433" id="Fill-324" fill="#00EFFF" mask="url(#mask-2)"></path>
                </g>
                <path d="M119.2365,92.6537 C119.0065,91.0127 117.4885,89.8697 115.8485,90.1007 C114.2075,90.3317 113.0645,91.8477 113.2945,93.4887 C113.5255,95.1297 115.0425,96.2727 116.6835,96.0427 C118.3235,95.8117 119.4665,94.2947 119.2365,92.6537" id="Fill-327" fill="#00EFFF"></path>
                <path d="M79.6257,98.2211 C79.3957,96.5801 77.8777,95.4371 76.2377,95.6671 C74.5967,95.8981 73.4537,97.4151 73.6847,99.0561 C73.9147,100.6971 75.4317,101.8401 77.0727,101.6091 C78.7127,101.3791 79.8557,99.8621 79.6257,98.2211" id="Fill-329" fill="#00EFFF"></path>
                <path d="M712.113,574.8339 C711.883,573.1929 710.365,572.0499 708.724,572.2809 C707.084,572.5109 705.94,574.0279 706.172,575.6689 C706.402,577.3099 707.919,578.4529 709.559,578.2229 C711.2,577.9919 712.343,576.4749 712.113,574.8339" id="Fill-338" fill="#00EFFF"></path>
                <path d="M672.5016,580.4008 C672.2716,578.7598 670.7546,577.6168 669.1136,577.8478 C667.4736,578.0788 666.3296,579.5948 666.5606,581.2358 C666.7906,582.8768 668.3086,584.0198 669.9486,583.7898 C671.5896,583.5588 672.7326,582.0418 672.5016,580.4008" id="Fill-340" fill="#00EFFF"></path>
                <path d="M746.1569,529.6567 C745.9269,528.0157 744.4089,526.8727 742.7679,527.1027 C741.1279,527.3337 739.9839,528.8507 740.2149,530.4917 C740.4459,532.1327 741.9629,533.2757 743.6029,533.0447 C745.2439,532.8147 746.3869,531.2977 746.1569,529.6567" id="Fill-346" fill="#00EFFF"></path>
                <path d="M706.5456,535.2236 C706.3156,533.5826 704.7986,532.4396 703.1576,532.6696 C701.5176,532.9006 700.3736,534.4176 700.6046,536.0586 C700.8346,537.6996 702.3526,538.8426 703.9926,538.6116 C705.6336,538.3816 706.7756,536.8646 706.5456,535.2236" id="Fill-348" fill="#00EFFF"></path>
                <path d="M666.9352,540.7905 C666.7052,539.1495 665.1872,538.0065 663.5462,538.2375 C661.9062,538.4675 660.7632,539.9845 660.9942,541.6255 C661.2242,543.2665 662.7412,544.4095 664.3812,544.1785 C666.0222,543.9485 667.1652,542.4315 666.9352,540.7905" id="Fill-350" fill="#00EFFF"></path>
                <path d="M740.5895,490.0458 C740.3595,488.4048 738.8425,487.2618 737.2005,487.4928 C735.5605,487.7228 734.4175,489.2398 734.6485,490.8808 C734.8785,492.5218 736.3955,493.6648 738.0365,493.4338 C739.6775,493.2038 740.8195,491.6868 740.5895,490.0458" id="Fill-356" fill="#00EFFF"></path>
                <path d="M700.9792,495.6127 C700.7492,493.9717 699.2312,492.8287 697.5902,493.0597 C695.9502,493.2897 694.8062,494.8067 695.0382,496.4477 C695.2682,498.0887 696.7852,499.2317 698.4252,499.0007 C700.0662,498.7707 701.2092,497.2537 700.9792,495.6127" id="Fill-358" fill="#00EFFF"></path>
                <path d="M661.3679,501.1796 C661.1379,499.5386 659.6209,498.3956 657.9799,498.6266 C656.3399,498.8566 655.1959,500.3736 655.4269,502.0146 C655.6569,503.6556 657.1749,504.7986 658.8149,504.5676 C660.4559,504.3376 661.5979,502.8206 661.3679,501.1796" id="Fill-360" fill="#00EFFF"></path>
                <path d="M735.0231,450.435 C734.7921,448.794 733.2751,447.651 731.6341,447.882 C729.9941,448.112 728.8501,449.629 729.0811,451.27 C729.3111,452.911 730.8291,454.054 732.4691,453.823 C734.1101,453.593 735.2531,452.076 735.0231,450.435" id="Fill-366" fill="#00EFFF"></path>
                <path d="M695.4118,456.0019 C695.1818,454.3609 693.6648,453.2179 692.0238,453.4489 C690.3828,453.6789 689.2398,455.1959 689.4708,456.8369 C689.7008,458.4779 691.2188,459.6209 692.8588,459.3899 C694.4998,459.1599 695.6418,457.6429 695.4118,456.0019" id="Fill-368" fill="#00EFFF"></path>
                <path d="M655.8015,461.5688 C655.5715,459.9278 654.0535,458.7848 652.4125,459.0158 C650.7725,459.2458 649.6285,460.7628 649.8605,462.4038 C650.0905,464.0448 651.6075,465.1878 653.2475,464.9568 C654.8885,464.7268 656.0315,463.2098 655.8015,461.5688" id="Fill-370" fill="#00EFFF"></path>
                <path d="M729.4557,410.8242 C729.2257,409.1832 727.7087,408.0402 726.0667,408.2712 C724.4267,408.5012 723.2837,410.0182 723.5147,411.6592 C723.7447,413.3002 725.2617,414.4432 726.9017,414.2132 C728.5437,413.9822 729.6857,412.4652 729.4557,410.8242" id="Fill-376" fill="#00EFFF"></path>
                <path d="M689.8454,416.3911 C689.6154,414.7501 688.0974,413.6071 686.4564,413.8381 C684.8164,414.0681 683.6724,415.5851 683.9034,417.2261 C684.1344,418.8671 685.6514,420.0101 687.2914,419.7801 C688.9324,419.5491 690.0754,418.0321 689.8454,416.3911" id="Fill-378" fill="#00EFFF"></path>
                <path d="M650.2341,421.958 C650.0041,420.317 648.4871,419.174 646.8461,419.405 C645.2061,419.635 644.0621,421.152 644.2931,422.793 C644.5231,424.434 646.0411,425.577 647.6811,425.347 C649.3221,425.116 650.4641,423.599 650.2341,421.958" id="Fill-380" fill="#00EFFF"></path>
                <path d="M632.8913,585.9677 C632.6613,584.3267 631.1433,583.1837 629.5023,583.4147 C627.8623,583.6457 626.7193,585.1617 626.9503,586.8027 C627.1803,588.4437 628.6973,589.5867 630.3373,589.3567 C631.9793,589.1257 633.1213,587.6087 632.8913,585.9677" id="Fill-382" fill="#00EFFF"></path>
                <path d="M593.2809,591.5351 C593.0509,589.8941 591.5329,588.7511 589.8919,588.9811 C588.2519,589.2121 587.1079,590.7291 587.3389,592.3701 C587.5699,594.0111 589.0869,595.1541 590.7269,594.9231 C592.3679,594.6931 593.5109,593.1761 593.2809,591.5351" id="Fill-384" fill="#00EFFF"></path>
                <path d="M553.6696,597.102 C553.4396,595.461 551.9226,594.318 550.2816,594.548 C548.6416,594.779 547.4976,596.296 547.7286,597.937 C547.9586,599.578 549.4766,600.721 551.1166,600.49 C552.7576,600.26 553.8996,598.743 553.6696,597.102" id="Fill-386" fill="#00EFFF"></path>
                <path d="M514.0593,602.6689 C513.8293,601.0279 512.3113,599.8849 510.6703,600.1159 C509.0303,600.3459 507.8873,601.8629 508.1183,603.5039 C508.3483,605.1449 509.8653,606.2879 511.5053,606.0569 C513.1463,605.8269 514.2893,604.3099 514.0593,602.6689" id="Fill-388" fill="#00EFFF"></path>
                <path d="M474.4489,608.2358 C474.2179,606.5948 472.7009,605.4518 471.0599,605.6828 C469.4199,605.9128 468.2759,607.4298 468.5069,609.0708 C468.7369,610.7118 470.2549,611.8548 471.8949,611.6238 C473.5359,611.3938 474.6789,609.8768 474.4489,608.2358" id="Fill-390" fill="#00EFFF"></path>
                <path d="M627.3239,546.3574 C627.0939,544.7164 625.5769,543.5734 623.9359,543.8044 C622.2959,544.0344 621.1519,545.5514 621.3829,547.1924 C621.6129,548.8334 623.1309,549.9764 624.7709,549.7454 C626.4119,549.5154 627.5549,547.9984 627.3239,546.3574" id="Fill-392" fill="#00EFFF"></path>
                <path d="M587.7136,551.9242 C587.4836,550.2832 585.9666,549.1402 584.3246,549.3712 C582.6846,549.6012 581.5416,551.1182 581.7726,552.7592 C582.0026,554.4002 583.5196,555.5432 585.1606,555.3122 C586.8016,555.0822 587.9436,553.5652 587.7136,551.9242" id="Fill-394" fill="#00EFFF"></path>
                <path d="M548.1032,557.4911 C547.8732,555.8501 546.3552,554.7071 544.7142,554.9381 C543.0742,555.1681 541.9302,556.6851 542.1622,558.3261 C542.3922,559.9671 543.9092,561.1101 545.5492,560.8791 C547.1902,560.6491 548.3332,559.1321 548.1032,557.4911" id="Fill-396" fill="#00EFFF"></path>
                <path d="M508.4919,563.058 C508.2619,561.417 506.7449,560.274 505.1039,560.505 C503.4639,560.735 502.3199,562.252 502.5509,563.893 C502.7809,565.534 504.2989,566.677 505.9389,566.446 C507.5799,566.216 508.7219,564.699 508.4919,563.058" id="Fill-398" fill="#00EFFF"></path>
                <path d="M468.8815,568.6249 C468.6515,566.9839 467.1335,565.8409 465.4925,566.0719 C463.8525,566.3019 462.7095,567.8189 462.9405,569.4599 C463.1705,571.1009 464.6875,572.2439 466.3275,572.0129 C467.9695,571.7829 469.1115,570.2659 468.8815,568.6249" id="Fill-400" fill="#00EFFF"></path>
                <path d="M621.7575,506.7465 C621.5275,505.1055 620.0095,503.9625 618.3685,504.1935 C616.7285,504.4235 615.5855,505.9405 615.8165,507.5815 C616.0465,509.2225 617.5635,510.3655 619.2035,510.1345 C620.8455,509.9045 621.9875,508.3875 621.7575,506.7465" id="Fill-402" fill="#00EFFF"></path>
                <path d="M582.1472,512.3134 C581.9162,510.6724 580.3992,509.5294 578.7582,509.7604 C577.1182,509.9904 575.9742,511.5074 576.2052,513.1484 C576.4362,514.7894 577.9532,515.9324 579.5932,515.7014 C581.2342,515.4714 582.3772,513.9544 582.1472,512.3134" id="Fill-404" fill="#00EFFF"></path>
                <path d="M542.5358,517.8803 C542.3058,516.2393 540.7888,515.0963 539.1478,515.3273 C537.5068,515.5573 536.3638,517.0743 536.5948,518.7153 C536.8248,520.3563 538.3428,521.4993 539.9828,521.2683 C541.6238,521.0383 542.7658,519.5213 542.5358,517.8803" id="Fill-406" fill="#00EFFF"></path>
                <path d="M502.9255,523.4472 C502.6955,521.8062 501.1775,520.6632 499.5365,520.8942 C497.8965,521.1242 496.7525,522.6412 496.9845,524.2822 C497.2145,525.9232 498.7315,527.0662 500.3715,526.8352 C502.0125,526.6052 503.1555,525.0882 502.9255,523.4472" id="Fill-408" fill="#00EFFF"></path>
                <path d="M463.3141,529.0141 C463.0841,527.3731 461.5671,526.2301 459.9261,526.4611 C458.2861,526.6911 457.1421,528.2081 457.3731,529.8491 C457.6031,531.4901 459.1211,532.6331 460.7611,532.4021 C462.4021,532.1721 463.5451,530.6551 463.3141,529.0141" id="Fill-410" fill="#00EFFF"></path>
                <path d="M616.1901,467.1357 C615.9601,465.4947 614.4431,464.3517 612.8021,464.5827 C611.1621,464.8127 610.0181,466.3297 610.2491,467.9707 C610.4791,469.6117 611.9971,470.7547 613.6371,470.5237 C615.2781,470.2937 616.4211,468.7767 616.1901,467.1357" id="Fill-412" fill="#00EFFF"></path>
                <path d="M576.5798,472.7026 C576.3498,471.0616 574.8328,469.9186 573.1908,470.1496 C571.5508,470.3796 570.4078,471.8966 570.6388,473.5376 C570.8688,475.1786 572.3858,476.3216 574.0258,476.0916 C575.6678,475.8606 576.8098,474.3436 576.5798,472.7026" id="Fill-414" fill="#00EFFF"></path>
                <path d="M536.9694,478.2695 C536.7394,476.6285 535.2214,475.4855 533.5804,475.7165 C531.9404,475.9465 530.7964,477.4635 531.0274,479.1045 C531.2584,480.7455 532.7754,481.8885 534.4154,481.6585 C536.0564,481.4275 537.1994,479.9105 536.9694,478.2695" id="Fill-416" fill="#00EFFF"></path>
                <path d="M497.3581,483.8364 C497.1281,482.1954 495.6111,481.0524 493.9701,481.2834 C492.3301,481.5134 491.1861,483.0304 491.4171,484.6714 C491.6471,486.3124 493.1651,487.4554 494.8051,487.2254 C496.4461,486.9944 497.5881,485.4774 497.3581,483.8364" id="Fill-418" fill="#00EFFF"></path>
                <path d="M457.7477,489.4033 C457.5177,487.7623 455.9997,486.6193 454.3587,486.8503 C452.7187,487.0813 451.5757,488.5973 451.8067,490.2383 C452.0367,491.8793 453.5537,493.0223 455.1937,492.7923 C456.8347,492.5613 457.9777,491.0443 457.7477,489.4033" id="Fill-420" fill="#00EFFF"></path>
                <path d="M610.6237,427.5248 C610.3937,425.8838 608.8757,424.7408 607.2347,424.9718 C605.5947,425.2028 604.4517,426.7188 604.6827,428.3598 C604.9127,430.0008 606.4297,431.1438 608.0697,430.9138 C609.7107,430.6828 610.8537,429.1658 610.6237,427.5248" id="Fill-422" fill="#00EFFF"></path>
                <path d="M571.0134,433.0917 C570.7824,431.4507 569.2654,430.3077 567.6244,430.5387 C565.9844,430.7697 564.8404,432.2857 565.0714,433.9267 C565.3014,435.5677 566.8194,436.7107 568.4594,436.4807 C570.1004,436.2497 571.2434,434.7327 571.0134,433.0917" id="Fill-424" fill="#00EFFF"></path>
                <path d="M531.402,438.6591 C531.172,437.0181 529.655,435.8751 528.014,436.1051 C526.373,436.3361 525.23,437.8531 525.461,439.4941 C525.691,441.1351 527.208,442.2781 528.849,442.0471 C530.49,441.8171 531.632,440.3001 531.402,438.6591" id="Fill-426" fill="#00EFFF"></path>
                <path d="M491.7917,444.226 C491.5617,442.585 490.0437,441.442 488.4027,441.672 C486.7627,441.903 485.6187,443.42 485.8507,445.061 C486.0807,446.702 487.5977,447.845 489.2377,447.614 C490.8787,447.384 492.0217,445.867 491.7917,444.226" id="Fill-428" fill="#00EFFF"></path>
                <path d="M452.1804,449.7929 C451.9504,448.1519 450.4334,447.0089 448.7924,447.2399 C447.1524,447.4699 446.0084,448.9869 446.2394,450.6279 C446.4694,452.2689 447.9874,453.4119 449.6274,453.1809 C451.2684,452.9509 452.4114,451.4339 452.1804,449.7929" id="Fill-430" fill="#00EFFF"></path>
                <path d="M434.8376,613.8027 C434.6076,612.1617 433.0906,611.0187 431.4486,611.2497 C429.8086,611.4797 428.6656,612.9967 428.8966,614.6377 C429.1266,616.2787 430.6436,617.4217 432.2846,617.1907 C433.9256,616.9607 435.0676,615.4437 434.8376,613.8027" id="Fill-432" fill="#00EFFF"></path>
                <path d="M395.2267,619.3696 C394.9967,617.7286 393.4787,616.5856 391.8387,616.8156 C390.1977,617.0466 389.0547,618.5636 389.2857,620.2046 C389.5157,621.8456 391.0327,622.9886 392.6737,622.7586 C394.3147,622.5266 395.4577,621.0106 395.2267,619.3696" id="Fill-434" fill="#00EFFF"></path>
                <path d="M355.6164,624.936 C355.3854,623.295 353.8684,622.153 352.2274,622.383 C350.5874,622.614 349.4444,624.13 349.6744,625.772 C349.9054,627.413 351.4224,628.555 353.0634,628.325 C354.7034,628.094 355.8464,626.578 355.6164,624.936" id="Fill-436" fill="#00EFFF"></path>
                <path d="M316.0056,630.5034 C315.7756,628.8624 314.2576,627.7194 312.6176,627.9494 C310.9766,628.1814 309.8336,629.6974 310.0646,631.3384 C310.2946,632.9794 311.8116,634.1224 313.4526,633.8924 C315.0926,633.6604 316.2356,632.1444 316.0056,630.5034" id="Fill-438" fill="#00EFFF"></path>
                <path d="M276.3947,636.0707 C276.1647,634.4287 274.6467,633.2867 273.0067,633.5167 C271.3657,633.7477 270.2227,635.2637 270.4537,636.9057 C270.6837,638.5467 272.2007,639.6887 273.8417,639.4587 C275.4817,639.2277 276.6247,637.7117 276.3947,636.0707" id="Fill-440" fill="#00EFFF"></path>
                <path d="M429.2712,574.1918 C429.0402,572.5508 427.5232,571.4078 425.8822,571.6388 C424.2422,571.8688 423.0982,573.3858 423.3292,575.0268 C423.5602,576.6678 425.0772,577.8108 426.7172,577.5798 C428.3582,577.3498 429.5012,575.8328 429.2712,574.1918" id="Fill-442" fill="#00EFFF"></path>
                <path d="M389.6599,579.7587 C389.4299,578.1177 387.9119,576.9747 386.2719,577.2057 C384.6309,577.4357 383.4879,578.9527 383.7189,580.5937 C383.9489,582.2347 385.4659,583.3777 387.1069,583.1467 C388.7479,582.9167 389.8909,581.3997 389.6599,579.7587" id="Fill-444" fill="#00EFFF"></path>
                <path d="M350.0495,585.3256 C349.8185,583.6846 348.3015,582.5416 346.6605,582.7726 C345.0205,583.0026 343.8775,584.5196 344.1075,586.1606 C344.3385,587.8016 345.8555,588.9446 347.4965,588.7136 C349.1365,588.4836 350.2795,586.9666 350.0495,585.3256" id="Fill-446" fill="#00EFFF"></path>
                <path d="M310.4387,590.8925 C310.2087,589.2515 308.6907,588.1085 307.0507,588.3395 C305.4097,588.5695 304.2667,590.0865 304.4967,591.7275 C304.7277,593.3685 306.2447,594.5115 307.8857,594.2805 C309.5257,594.0505 310.6687,592.5335 310.4387,590.8925" id="Fill-448" fill="#00EFFF"></path>
                <path d="M270.8278,596.4594 C270.5978,594.8184 269.0798,593.6754 267.4398,593.9064 C265.7988,594.1364 264.6558,595.6534 264.8868,597.2944 C265.1168,598.9354 266.6338,600.0784 268.2748,599.8484 C269.9148,599.6174 271.0578,598.1004 270.8278,596.4594" id="Fill-450" fill="#00EFFF"></path>
                <path d="M423.7038,534.581 C423.4738,532.94 421.9568,531.797 420.3148,532.028 C418.6748,532.258 417.5318,533.775 417.7628,535.416 C417.9928,537.057 419.5098,538.2 421.1508,537.97 C422.7918,537.739 423.9338,536.222 423.7038,534.581" id="Fill-452" fill="#00EFFF"></path>
                <path d="M384.093,540.1479 C383.863,538.5069 382.345,537.3639 380.705,537.5949 C379.064,537.8249 377.921,539.3419 378.152,540.9829 C378.382,542.6239 379.899,543.7669 381.54,543.5369 C383.18,543.3059 384.324,541.7889 384.093,540.1479" id="Fill-454" fill="#00EFFF"></path>
                <path d="M344.4826,545.7148 C344.2516,544.0738 342.7346,542.9308 341.0936,543.1618 C339.4536,543.3918 338.3106,544.9088 338.5406,546.5498 C338.7716,548.1908 340.2886,549.3338 341.9286,549.1038 C343.5696,548.8728 344.7126,547.3558 344.4826,545.7148" id="Fill-456" fill="#00EFFF"></path>
                <path d="M304.8718,551.2817 C304.6418,549.6407 303.1238,548.4977 301.4838,548.7287 C299.8428,548.9597 298.6998,550.4757 298.9298,552.1167 C299.1608,553.7577 300.6778,554.9007 302.3188,554.6707 C303.9588,554.4397 305.1018,552.9227 304.8718,551.2817" id="Fill-458" fill="#00EFFF"></path>
                <path d="M265.2609,556.8486 C265.0309,555.2076 263.5129,554.0646 261.8729,554.2956 C260.2319,554.5266 259.0889,556.0426 259.3199,557.6836 C259.5499,559.3246 261.0669,560.4676 262.7079,560.2376 C264.3479,560.0066 265.4909,558.4896 265.2609,556.8486" id="Fill-460" fill="#00EFFF"></path>
                <path d="M418.1374,494.9702 C417.9064,493.3292 416.3894,492.1862 414.7484,492.4172 C413.1084,492.6482 411.9644,494.1642 412.1954,495.8052 C412.4254,497.4462 413.9434,498.5892 415.5834,498.3592 C417.2244,498.1282 418.3674,496.6112 418.1374,494.9702" id="Fill-462" fill="#00EFFF"></path>
                <path d="M378.5261,500.5375 C378.2961,498.8965 376.7781,497.7535 375.1381,497.9835 C373.4971,498.2145 372.3541,499.7315 372.5851,501.3725 C372.8151,503.0135 374.3321,504.1565 375.9731,503.9255 C377.6131,503.6955 378.7571,502.1785 378.5261,500.5375" id="Fill-464" fill="#00EFFF"></path>
                <path d="M338.9157,506.1044 C338.6847,504.4634 337.1677,503.3204 335.5267,503.5504 C333.8867,503.7814 332.7437,505.2984 332.9737,506.9394 C333.2047,508.5804 334.7217,509.7234 336.3617,509.4924 C338.0027,509.2624 339.1457,507.7454 338.9157,506.1044" id="Fill-466" fill="#00EFFF"></path>
                <path d="M299.3049,511.6713 C299.0749,510.0303 297.5569,508.8873 295.9169,509.1183 C294.2759,509.3483 293.1329,510.8653 293.3629,512.5063 C293.5939,514.1473 295.1109,515.2903 296.7519,515.0593 C298.3919,514.8293 299.5349,513.3123 299.3049,511.6713" id="Fill-468" fill="#00EFFF"></path>
                <path d="M259.694,517.2382 C259.464,515.5972 257.946,514.4542 256.306,514.6852 C254.665,514.9152 253.522,516.4322 253.753,518.0732 C253.983,519.7142 255.5,520.8572 257.141,520.6262 C258.781,520.3962 259.924,518.8792 259.694,517.2382" id="Fill-470" fill="#00EFFF"></path>
                <path d="M412.57,455.3598 C412.34,453.7188 410.822,452.5758 409.181,452.8068 C407.541,453.0368 406.398,454.5538 406.629,456.1948 C406.859,457.8358 408.376,458.9788 410.016,458.7478 C411.658,458.5178 412.8,457.0008 412.57,455.3598" id="Fill-472" fill="#00EFFF"></path>
                <path d="M372.9592,460.9267 C372.7292,459.2857 371.2112,458.1427 369.5712,458.3737 C367.9302,458.6037 366.7872,460.1207 367.0182,461.7617 C367.2482,463.4027 368.7652,464.5457 370.4062,464.3147 C372.0462,464.0847 373.1892,462.5677 372.9592,460.9267" id="Fill-474" fill="#00EFFF"></path>
                <path d="M333.3483,466.4936 C333.1183,464.8526 331.6003,463.7096 329.9603,463.9406 C328.3193,464.1706 327.1763,465.6876 327.4073,467.3286 C327.6373,468.9696 329.1543,470.1126 330.7953,469.8816 C332.4363,469.6516 333.5793,468.1346 333.3483,466.4936" id="Fill-476" fill="#00EFFF"></path>
                <path d="M293.738,472.0605 C293.507,470.4195 291.99,469.2765 290.349,469.5075 C288.709,469.7375 287.566,471.2545 287.796,472.8955 C288.027,474.5365 289.544,475.6795 291.185,475.4485 C292.825,475.2185 293.968,473.7015 293.738,472.0605" id="Fill-478" fill="#00EFFF"></path>
                <path d="M254.1271,477.6274 C253.8971,475.9864 252.3791,474.8434 250.7391,475.0744 C249.0981,475.3044 247.9551,476.8214 248.1861,478.4624 C248.4161,480.1034 249.9331,481.2464 251.5741,481.0154 C253.2141,480.7854 254.3571,479.2684 254.1271,477.6274" id="Fill-480" fill="#00EFFF"></path>
                <path d="M236.7839,641.6372 C236.5539,639.9962 235.0359,638.8532 233.3959,639.0832 C231.7549,639.3152 230.6119,640.8312 230.8429,642.4722 C231.0729,644.1132 232.5899,645.2562 234.2309,645.0262 C235.8719,644.7952 237.0149,643.2782 236.7839,641.6372" id="Fill-482" fill="#00EFFF"></path>
                <path d="M197.1735,647.2045 C196.9425,645.5625 195.4255,644.4205 193.7845,644.6505 C192.1445,644.8815 191.0015,646.3985 191.2315,648.0395 C191.4625,649.6805 192.9795,650.8225 194.6205,650.5925 C196.2605,650.3615 197.4035,648.8455 197.1735,647.2045" id="Fill-484" fill="#00EFFF"></path>
                <path d="M231.217,602.0263 C230.987,600.3853 229.469,599.2423 227.829,599.4733 C226.188,599.7033 225.045,601.2203 225.276,602.8613 C225.506,604.5023 227.023,605.6453 228.664,605.4153 C230.304,605.1843 231.448,603.6673 231.217,602.0263" id="Fill-486" fill="#00EFFF"></path>
                <path d="M191.6066,607.5932 C191.3756,605.9522 189.8586,604.8092 188.2176,605.0402 C186.5776,605.2702 185.4346,606.7872 185.6646,608.4282 C185.8956,610.0692 187.4126,611.2122 189.0536,610.9822 C190.6936,610.7512 191.8366,609.2342 191.6066,607.5932" id="Fill-488" fill="#00EFFF"></path>
                <path d="M72.7741,624.2944 C72.5441,622.6534 71.0261,621.5104 69.3861,621.7404 C67.7451,621.9714 66.6021,623.4884 66.8331,625.1294 C67.0631,626.7704 68.5801,627.9134 70.2211,627.6824 C71.8611,627.4514 73.0051,625.9354 72.7741,624.2944" id="Fill-490" fill="#00EFFF"></path>
                <path d="M186.0397,567.9828 C185.8087,566.3418 184.2917,565.1988 182.6507,565.4288 C181.0107,565.6598 179.8677,567.1768 180.0977,568.8178 C180.3287,570.4588 181.8457,571.6018 183.4857,571.3708 C185.1267,571.1408 186.2697,569.6238 186.0397,567.9828" id="Fill-492" fill="#00EFFF"></path>
                <path d="M146.4289,573.5497 C146.1989,571.9087 144.6809,570.7657 143.0409,570.9967 C141.3999,571.2267 140.2569,572.7437 140.4869,574.3847 C140.7179,576.0257 142.2349,577.1687 143.8759,576.9377 C145.5159,576.7077 146.6589,575.1907 146.4289,573.5497" id="Fill-494" fill="#00EFFF"></path>
                <path d="M106.818,579.1166 C106.588,577.4756 105.07,576.3326 103.43,576.5636 C101.789,576.7936 100.646,578.3106 100.877,579.9516 C101.107,581.5926 102.624,582.7356 104.265,582.5046 C105.905,582.2746 107.048,580.7576 106.818,579.1166" id="Fill-496" fill="#00EFFF"></path>
                <path d="M180.4728,528.372 C180.2418,526.731 178.7248,525.588 177.0838,525.819 C175.4438,526.049 174.3008,527.566 174.5308,529.207 C174.7618,530.848 176.2788,531.991 177.9188,531.76 C179.5598,531.53 180.7028,530.013 180.4728,528.372" id="Fill-498" fill="#00EFFF"></path>
                <path d="M140.862,533.9389 C140.631,532.2979 139.114,531.1549 137.473,531.3859 C135.833,531.6159 134.69,533.1329 134.92,534.7739 C135.151,536.4149 136.668,537.5579 138.309,537.3269 C139.949,537.0969 141.092,535.5799 140.862,533.9389" id="Fill-500" fill="#00EFFF"></path>
                <path d="M214.5163,483.1943 C214.2863,481.5533 212.7683,480.4103 211.1283,480.6413 C209.4873,480.8713 208.3443,482.3883 208.5753,484.0293 C208.8053,485.6703 210.3223,486.8133 211.9633,486.5823 C213.6033,486.3523 214.7463,484.8353 214.5163,483.1943" id="Fill-502" fill="#00EFFF"></path>
                <path d="M174.9054,488.7612 C174.6754,487.1202 173.1574,485.9772 171.5174,486.2082 C169.8764,486.4382 168.7334,487.9552 168.9644,489.5962 C169.1944,491.2372 170.7114,492.3802 172.3524,492.1492 C173.9934,491.9192 175.1364,490.4022 174.9054,488.7612" id="Fill-504" fill="#00EFFF"></path>
                <path d="M135.2951,494.3281 C135.0641,492.6871 133.5471,491.5441 131.9061,491.7751 C130.2661,492.0051 129.1231,493.5221 129.3531,495.1631 C129.5841,496.8041 131.1011,497.9471 132.7421,497.7161 C134.3821,497.4861 135.5251,495.9691 135.2951,494.3281" id="Fill-506" fill="#00EFFF"></path>
                <path d="M56.0734,505.4619 C55.8434,503.8209 54.3254,502.6779 52.6854,502.9089 C51.0444,503.1389 49.9014,504.6559 50.1324,506.2969 C50.3624,507.9379 51.8794,509.0809 53.5204,508.8509 C55.1604,508.6199 56.3034,507.1029 56.0734,505.4619" id="Fill-508" fill="#00EFFF"></path>
            </g>
        </g>
    </g>
</svg>