<?xml version="1.0" encoding="UTF-8"?>
<svg width="47px" height="42px" viewBox="0 0 47 42" version="1.1" xmlns="http://www.w3.org/2000/svg" xmlns:xlink="http://www.w3.org/1999/xlink">
    <!-- Generator: Sketch 59.1 (86144) - https://sketch.com -->
    <title>language</title>
    <desc>Created with Sketch.</desc>
    <g id="Website" stroke="none" stroke-width="1" fill="none" fill-rule="evenodd">
        <g id="Contact" transform="translate(-132.000000, -644.000000)" fill-rule="nonzero">
            <g id="language" transform="translate(132.000000, 644.000000)">
                <path d="M6.009,42 C5.683,42 5.355,41.961 5.03,41.88 L0.758,40.811 C0.312,40.699 0,40.3 0,39.841 L0,1 C0,0.447 0.447,0 1,0 L3,0 C6.859,0 10,3.141 10,7 L10,12.586 L15.209,17.795 C15.983,18.569 16.271,19.661 15.98,20.717 C15.687,21.772 14.878,22.56 13.817,22.826 L10,23.78 L10,28 C10,28.407 9.753,28.774 9.375,28.927 L6.703,30.009 C6.135,30.238 6.081,30.762 6.078,30.916 C6.075,31.07 6.109,31.596 6.665,31.847 L9.412,33.089 C9.771,33.251 10,33.607 10,34 L10,37.998 C10,39.238 9.439,40.388 8.462,41.15 C7.748,41.708 6.889,42 6.009,42 Z" id="Path" fill="#3057FF"></path>
                <path d="M42,32 L16,32 C15.621,32 15.275,31.786 15.105,31.447 C14.936,31.108 14.972,30.703 15.2,30.4 L21,22.667 L21,11 C21,8.243 23.243,6 26,6 L42,6 C44.757,6 47,8.243 47,11 L47,27 C47,29.757 44.757,32 42,32 Z" id="Path" fill="#00EFFF"></path>
                <path d="M40,16 L28,16 C27.447,16 27,15.553 27,15 C27,14.447 27.447,14 28,14 L40,14 C40.553,14 41,14.447 41,15 C41,15.553 40.553,16 40,16 Z" id="Path" fill="#3057FF"></path>
                <path d="M34,24 L28,24 C27.447,24 27,23.553 27,23 C27,22.447 27.447,22 28,22 L34,22 C34.553,22 35,22.447 35,23 C35,23.553 34.553,24 34,24 Z" id="Path" fill="#3057FF"></path>
            </g>
        </g>
    </g>
</svg>