<?xml version="1.0" encoding="UTF-8"?>
<svg width="32px" height="31px" viewBox="0 0 32 31" version="1.1" xmlns="http://www.w3.org/2000/svg" xmlns:xlink="http://www.w3.org/1999/xlink">
    <!-- Generator: Sketch 59.1 (86144) - https://sketch.com -->
    <title>loan</title>
    <desc>Created with Sketch.</desc>
    <g id="Website" stroke="none" stroke-width="1" fill="none" fill-rule="evenodd">
        <g id="Landing-page" transform="translate(-954.000000, -1947.000000)" fill-rule="nonzero">
            <g id="loan" transform="translate(954.000000, 1947.000000)">
                <path d="M19.007,0 C15.1448727,0 12.014,3.13087274 12.014,6.993 C12.014,10.8551273 15.1448727,13.986 19.007,13.986 C22.8691273,13.986 26,10.8551273 26,6.993 C25.9961414,3.13247216 22.8675278,0.00385860143 19.007,0 Z M20,10 L18,10 L18,4 L20,4 L20,10 Z" id="Shape" fill="#00EFFF"></path>
                <path d="M31.909,22.313 L31.909,22.313 C31.6118282,20.9622574 30.4150462,20.0000896 29.032,20 L22.85,20 C22.9498375,20.4734938 23.0001084,20.9560952 23,21.44 L23,22.44 C23,22.9922847 22.5522847,23.44 22,23.44 L10,23.44 L10,21.44 L21,21.44 C21,18.6785763 18.7614237,16.44 16,16.44 L9.538,16.44 C8.11893568,14.881746 6.10757663,13.9955568 4,13.9999834 L0,13.9999834 L0,25 L9.19,29.6 C10.9960706,30.5032534 13.0769147,30.6900828 15.015,30.123 L29.859,25.778 C31.3483852,25.3433242 32.2450863,23.8276806 31.909,22.313 Z" id="Path" fill="#00B7FF"></path>
            </g>
        </g>
    </g>
</svg>