<?xml version="1.0" encoding="UTF-8"?>
<svg width="46px" height="46px" viewBox="0 0 46 46" version="1.1" xmlns="http://www.w3.org/2000/svg" xmlns:xlink="http://www.w3.org/1999/xlink">
    <!-- Generator: Sketch 59.1 (86144) - https://sketch.com -->
    <title>office-big</title>
    <desc>Created with Sketch.</desc>
    <g id="Website" stroke="none" stroke-width="1" fill="none" fill-rule="evenodd">
        <g id="Landing-page" transform="translate(-343.000000, -2592.000000)" fill-rule="nonzero">
            <g id="office-big" transform="translate(343.000000, 2592.000000)">
                <path d="M45,20 L29,20 C28.447,20 28,20.447 28,21 L28,45 C28,45.553 28.447,46 29,46 L45,46 C45.553,46 46,45.553 46,45 L46,21 C46,20.447 45.553,20 45,20 Z M40,40 L34,40 C33.447,40 33,39.553 33,39 C33,38.447 33.447,38 34,38 L40,38 C40.553,38 41,38.447 41,39 C41,39.553 40.553,40 40,40 Z M40,34 L34,34 C33.447,34 33,33.553 33,33 C33,32.447 33.447,32 34,32 L40,32 C40.553,32 41,32.447 41,33 C41,33.553 40.553,34 40,34 Z M40,28 L34,28 C33.447,28 33,27.553 33,27 C33,26.447 33.447,26 34,26 L40,26 C40.553,26 41,26.447 41,27 C41,27.553 40.553,28 40,28 Z" id="Shape" fill="#00B7FF"></path>
                <path d="M35,4 L24,4 L24,1 C24,0.447 23.553,0 23,0 C22.447,0 22,0.447 22,1 L22,4 L11,4 C10.448,4 10,4.448 10,5 L10,24 L18,24 C19.105,24 20,24.895 20,26 L20,46 L26,46 L26,20 C26,18.895 26.895,18 28,18 L36,18 L36,5 C36,4.448 35.552,4 35,4 Z M27,14 L19,14 C18.447,14 18,13.553 18,13 C18,12.447 18.447,12 19,12 L27,12 C27.553,12 28,12.447 28,13 C28,13.553 27.553,14 27,14 Z" id="Shape" fill="#00EFFF"></path>
                <path d="M17,26 L1,26 C0.447,26 0,26.447 0,27 L0,45 C0,45.553 0.447,46 1,46 L17,46 C17.553,46 18,45.553 18,45 L18,27 C18,26.447 17.553,26 17,26 Z M12,40 L6,40 C5.447,40 5,39.553 5,39 C5,38.447 5.447,38 6,38 L12,38 C12.553,38 13,38.447 13,39 C13,39.553 12.553,40 12,40 Z M12,34 L6,34 C5.447,34 5,33.553 5,33 C5,32.447 5.447,32 6,32 L12,32 C12.553,32 13,32.447 13,33 C13,33.553 12.553,34 12,34 Z" id="Shape" fill="#00B7FF"></path>
            </g>
        </g>
    </g>
</svg>