<?xml version="1.0" encoding="UTF-8"?>
<svg width="120px" height="117px" viewBox="0 0 120 117" version="1.1" xmlns="http://www.w3.org/2000/svg" xmlns:xlink="http://www.w3.org/1999/xlink">
    <!-- Generator: Sketch 59.1 (86144) - https://sketch.com -->
    <title>raising-hands</title>
    <desc>Created with Sketch.</desc>
    <g id="Website" stroke="none" stroke-width="1" fill="none" fill-rule="evenodd">
        <g id="Registeration-success" transform="translate(-660.000000, -458.000000)" fill-rule="nonzero">
            <g id="raising-hands" transform="translate(660.000000, 458.000000)">
                <path d="M57.3913043,72.8 C57.3786682,70.4900126 55.8385512,68.4652576 53.6103691,67.8292951 C51.382187,67.1933325 49.0001744,68.0986423 47.7626087,70.0518 L41.7391304,80.0098 L41.7391304,41.6 C41.7391304,38.7281193 39.4032248,36.4 36.5217391,36.4 C33.6402535,36.4 31.3043478,38.7281193 31.3043478,41.6 L31.3043478,36.4 C31.3043478,33.5281193 28.9684422,31.2 26.0869565,31.2 C23.2054709,31.2 20.8695652,33.5281193 20.8695652,36.4 C20.8695652,33.5281193 18.5336596,31.2 15.6521739,31.2 C12.7706883,31.2 10.4347826,33.5281193 10.4347826,36.4 L10.4347826,44.2 C10.4347826,41.3281193 8.09887696,39 5.2173913,39 C2.33590565,39 -0.000163429531,41.3281193 -0.000163429531,44.2 L-0.000163429531,90.6958 C-0.0202887314,95.5653237 1.84915964,100.254109 5.2173913,103.7816 L5.2173913,114.4 C5.2173913,115.83594 6.38534413,117 7.82608696,117 L36.5217391,117 C37.962482,117 39.1304348,115.83594 39.1304348,114.4 L39.1304348,104 C48.4226087,96.3612 57.0886957,74.4874 57.1043478,74.425 C57.2877972,73.9024304 57.3847156,73.3535934 57.3913043,72.8 Z" id="Path" fill="#FFD764"></path>
                <path d="M31.3043478,70.2 C29.863605,70.2 28.6956522,69.0359403 28.6956522,67.6 L28.6956522,44.2 C28.6956522,42.7640597 29.863605,41.6 31.3043478,41.6 C32.7450907,41.6 33.9130435,42.7640597 33.9130435,44.2 L33.9130435,67.6 C33.9130435,69.0359403 32.7450907,70.2 31.3043478,70.2 Z" id="Path" fill="#E2AC4B"></path>
                <path d="M20.8695652,70.2 C19.4288224,70.2 18.2608696,69.0359403 18.2608696,67.6 L18.2608696,39 C18.2608696,37.5640597 19.4288224,36.4 20.8695652,36.4 C22.310308,36.4 23.4782609,37.5640597 23.4782609,39 L23.4782609,67.6 C23.4782609,69.0359403 22.310308,70.2 20.8695652,70.2 Z" id="Path" fill="#E2AC4B"></path>
                <path d="M10.4347826,72.8 C8.99403978,72.8 7.82608696,71.6359403 7.82608696,70.2 L7.82608696,46.8 C7.82608696,45.3640597 8.99403978,44.2 10.4347826,44.2 C11.8755254,44.2 13.0434783,45.3640597 13.0434783,46.8 L13.0434783,70.2 C13.0434783,71.6359403 11.8755254,72.8 10.4347826,72.8 Z" id="Path" fill="#E2AC4B"></path>
                <path d="M26.0869565,93.6 C24.7303842,93.6051257 23.5962738,92.5731344 23.4782609,91.2262 C23.1564012,86.8686422 24.7500091,82.5866951 27.8452174,79.4924 C30.9256527,76.5656962 35.116683,75.0947804 39.3573913,75.452 C40.3025954,75.5152179 41.1391264,76.0841707 41.5427683,76.938348 C41.9464101,77.7925252 41.8537154,78.7976614 41.3006101,79.5641938 C40.7475048,80.3307261 39.8209299,80.7381656 38.88,80.6286 C36.1095515,80.3745358 33.3691845,81.3612939 31.4014024,83.321512 C29.4336204,85.28173 28.4421579,88.0124565 28.6956522,90.7738 C28.7585359,91.4639332 28.5423937,92.1505312 28.0952111,92.6811634 C27.6480285,93.2117956 27.0068105,93.5425513 26.313913,93.6 C26.2383075,93.6037422 26.1625621,93.6037422 26.0869565,93.6 Z" id="Path" fill="#E2AC4B"></path>
                <path d="M62.6086957,72.8 C62.6213318,70.4900126 64.1614488,68.4652576 66.3896309,67.8292951 C68.617813,67.1933325 70.9998256,68.0986423 72.2373913,70.0518 L78.2608696,80.0098 L78.2608696,41.6 C78.2608696,38.7281193 80.5967752,36.4 83.4782609,36.4 C86.3597465,36.4 88.6956522,38.7281193 88.6956522,41.6 L88.6956522,36.4 C88.6956522,33.5281193 91.0315578,31.2 93.9130435,31.2 C96.7945291,31.2 99.1304348,33.5281193 99.1304348,36.4 C99.1304348,33.5281193 101.46634,31.2 104.347826,31.2 C107.229312,31.2 109.565217,33.5281193 109.565217,36.4 L109.565217,44.2 C109.565217,41.3281193 111.901123,39 114.782609,39 C117.664094,39 120.000163,41.3281193 120.000163,44.2 L120.000163,90.6958 C120.020289,95.5653237 118.15084,100.254109 114.782609,103.7816 L114.782609,114.4 C114.782609,115.83594 113.614656,117 112.173913,117 L83.4782609,117 C82.037518,117 80.8695652,115.83594 80.8695652,114.4 L80.8695652,104 C71.5747826,96.3638 62.9113043,74.4874 62.8956522,74.425 C62.7122028,73.9024304 62.6152844,73.3535934 62.6086957,72.8 Z" id="Path" fill="#FFD764"></path>
                <path d="M88.6956522,70.2 C90.136395,70.2 91.3043478,69.0359403 91.3043478,67.6 L91.3043478,44.2 C91.3043478,42.7640597 90.136395,41.6 88.6956522,41.6 C87.2549093,41.6 86.0869565,42.7640597 86.0869565,44.2 L86.0869565,67.6 C86.0869565,69.0359403 87.2549093,70.2 88.6956522,70.2 Z" id="Path" fill="#E2AC4B"></path>
                <path d="M99.1304348,70.2 C100.571178,70.2 101.73913,69.0359403 101.73913,67.6 L101.73913,39 C101.73913,37.5640597 100.571178,36.4 99.1304348,36.4 C97.689692,36.4 96.5217391,37.5640597 96.5217391,39 L96.5217391,67.6 C96.5217391,69.0359403 97.689692,70.2 99.1304348,70.2 Z" id="Path" fill="#E2AC4B"></path>
                <path d="M109.565217,72.8 C111.00596,72.8 112.173913,71.6359403 112.173913,70.2 L112.173913,46.8 C112.173913,45.3640597 111.00596,44.2 109.565217,44.2 C108.124475,44.2 106.956522,45.3640597 106.956522,46.8 L106.956522,70.2 C106.956522,71.6359403 108.124475,72.8 109.565217,72.8 Z" id="Path" fill="#E2AC4B"></path>
                <path d="M93.9130435,93.6 C95.2696158,93.6051257 96.4037262,92.5731344 96.5217391,91.2262 C96.8435988,86.8686422 95.2499909,82.5866951 92.1547826,79.4924 C89.0743473,76.5656962 84.883317,75.0947804 80.6426087,75.452 C79.6974046,75.5152179 78.8608736,76.0841707 78.4572317,76.938348 C78.0535899,77.7925252 78.1462846,78.7976614 78.6993899,79.5641938 C79.2524952,80.3307261 80.1790701,80.7381656 81.12,80.6286 C83.8904485,80.3745358 86.6308155,81.3612939 88.5985976,83.321512 C90.5663796,85.28173 91.5578421,88.0124565 91.3043478,90.7738 C91.2414641,91.4639332 91.4576063,92.1505312 91.9047889,92.6811634 C92.3519715,93.2117956 92.9931895,93.5425513 93.686087,93.6 C93.7616925,93.6037422 93.8374379,93.6037422 93.9130435,93.6 Z" id="Path" fill="#E2AC4B"></path>
                <path d="M62.6086957,-2.32393559e-08 L57.3913043,-2.32393559e-08 C56.6347391,-2.32393559e-08 55.9153954,0.327162149 55.4198215,0.89691862 C54.9242476,1.46667509 54.7012634,2.22279764 54.8086957,2.9692 L57.4173913,21.1692 C57.6005775,22.4505016 58.7014274,23.4024249 60,23.4024249 C61.2985726,23.4024249 62.3994225,22.4505016 62.5826087,21.1692 L65.1913043,2.9692 C65.2987366,2.22279764 65.0757524,1.46667509 64.5801785,0.89691862 C64.0846046,0.327162149 63.3652609,-2.32393559e-08 62.6086957,-2.32393559e-08 Z" id="Path" fill="#B3B3B3"></path>
                <path d="M38.3921739,6.9342 C38.1405932,6.22387495 37.5922785,5.65721194 36.8891629,5.38089332 C36.1860472,5.10457471 35.397251,5.14576428 34.7269565,5.4938 L30.0991304,7.8988 C29.4280051,8.2468137 28.9415168,8.86806246 28.7658158,9.60145159 C28.5901147,10.3348407 28.7425078,11.1081302 29.1834783,11.7208 L39.9443478,26.6552 C40.4346347,27.3361893 41.2242449,27.7398423 42.0652174,27.7394004 C42.911501,27.7386184 43.7048188,27.3287272 44.1932229,26.6399029 C44.681627,25.9510786 44.8044216,25.0689238 44.5226087,24.2736 L38.3921739,6.9342 Z" id="Path" fill="#B3B3B3"></path>
                <path d="M91.233913,9.6018 C91.0583648,8.86833175 90.5719708,8.24694994 89.9008696,7.8988 L85.2730435,5.4938 C84.602749,5.14576428 83.8139528,5.10457471 83.1108371,5.38089332 C82.4077215,5.65721194 81.8594068,6.22387495 81.6078261,6.9342 L75.4773913,24.2736 C75.0467685,25.4933795 75.5809799,26.8431847 76.7311485,27.4414995 C77.8813171,28.0398144 79.2978494,27.7047813 80.0556522,26.6552 L90.813913,11.7208 C91.2555914,11.1085857 91.4088388,10.335416 91.233913,9.6018 Z" id="Path" fill="#B3B3B3"></path>
            </g>
        </g>
    </g>
</svg>