<?xml version="1.0" encoding="UTF-8"?>
<svg width="32px" height="30px" viewBox="0 0 32 30" version="1.1" xmlns="http://www.w3.org/2000/svg" xmlns:xlink="http://www.w3.org/1999/xlink">
    <!-- Generator: Sketch 59.1 (86144) - https://sketch.com -->
    <title>shop</title>
    <desc>Created with Sketch.</desc>
    <g id="Website" stroke="none" stroke-width="1" fill="none" fill-rule="evenodd">
        <g id="Landing-page" transform="translate(-954.000000, -1523.000000)" fill-rule="nonzero">
            <g id="shop" transform="translate(954.000000, 1523.000000)">
                <path d="M26.5,16 L26.469,16 C25.2653414,15.9803471 24.0831786,15.6778696 23.018,15.117 C21.9372568,15.6934309 20.7318538,15.9965842 19.507,16 C18.2841172,15.9863291 17.0820283,15.6819508 16,15.112 C13.8083938,16.2961641 11.1676062,16.2961641 8.976,15.112 C7.92325298,15.6676017 6.75602551,15.9715601 5.566,16 L5.566,16 C5.03975447,15.9982625 4.51505165,15.9429777 4,15.835 L4,29 C4,29.5522847 4.44771525,30 5,30 L13,30 L13,23 L19,23 L19,30 L27,30 C27.5522847,30 28,29.5522847 28,29 L28,15.846 C27.506443,15.9475934 27.0039038,15.9991875 26.5,16 Z" id="Path" fill="#00B7FF"></path>
                <path d="M31.774,8.4 L25.8,0.4 C25.6111456,0.148194157 25.3147573,0 25,0 L7,0 C6.6852427,0 6.38885438,0.148194157 6.2,0.4 L0.226,8.4 C0.0745695541,8.60354353 0.00563348134,8.85678537 0.033,9.109 C0.344189482,11.9023521 2.71139174,14.0116591 5.522,14.0000481 C6.78791231,13.9724242 8.00798847,13.5210136 8.987,12.718 C9.97427002,13.5479533 11.2232247,14.0020543 12.513,14.0000481 C13.7878712,13.9847261 15.0188399,13.5321589 16,12.718 C16.985313,13.5337395 18.2209044,13.986319 19.5,14.0000481 C20.7827791,14.0006094 22.0245243,13.547971 23.006,12.722 C23.9916358,13.532606 25.2239581,13.9833523 26.5,14.0000481 C29.3018671,14.0004748 31.6562475,11.8945812 31.967,9.11 C31.9946254,8.85745353 31.9256763,8.6038067 31.774,8.4 Z" id="Path" fill="#00EFFF"></path>
            </g>
        </g>
    </g>
</svg>