<?xml version="1.0" encoding="UTF-8"?>
<svg width="335px" height="386px" viewBox="0 0 335 386" version="1.1" xmlns="http://www.w3.org/2000/svg" xmlns:xlink="http://www.w3.org/1999/xlink">
    <!-- Generator: Sketch 59.1 (86144) - https://sketch.com -->
    <title>Group 9</title>
    <desc>Created with Sketch.</desc>
    <defs>
        <polygon id="path-1" points="0.000237306181 0.000524505524 94.172 0.000524505524 94.172 21.8333165 0.000237306181 21.8333165"></polygon>
        <polygon id="path-3" points="0.000237306181 0.000524505524 94.172 0.000524505524 94.172 21.8333165 0.000237306181 21.8333165"></polygon>
        <polygon id="path-5" points="0.000237306181 0.000524505524 94.172 0.000524505524 94.172 21.8333165 0.000237306181 21.8333165"></polygon>
        <polygon id="path-7" points="0 0.0004 109.087 0.0004 109.087 29.0839231 0 29.0839231"></polygon>
        <polygon id="path-9" points="0 0.0004 109.087 0.0004 109.087 29.0839231 0 29.0839231"></polygon>
        <polygon id="path-11" points="0.000237306181 0.000524505524 94.172 0.000524505524 94.172 21.8333165 0.000237306181 21.8333165"></polygon>
        <polygon id="path-13" points="0.000237306181 0.000524505524 94.172 0.000524505524 94.172 21.8333165 0.000237306181 21.8333165"></polygon>
        <polygon id="path-15" points="0.000237306181 0.000524505524 94.172 0.000524505524 94.172 21.8333165 0.000237306181 21.8333165"></polygon>
        <polygon id="path-17" points="0 0.0004 109.087 0.0004 109.087 29.0839231 0 29.0839231"></polygon>
    </defs>
    <g id="Website" stroke="none" stroke-width="1" fill="none" fill-rule="evenodd">
        <g id="Landing-page" transform="translate(0.000000, -2200.000000)">
            <g id="Group-9" transform="translate(-61.000000, 2200.000000)">
                <g id="Group-3" transform="translate(205.000000, 202.000000)">
                    <mask id="mask-2" fill="white">
                        <use xlink:href="#path-1"></use>
                    </mask>
                    <g id="Clip-2"></g>
                    <path d="M85.9977,10.9969 C84.8087,10.9419 83.7247,10.1249 83.3437,8.9969 C82.6517,6.9529 84.1927,4.9089 86.3487,5.0099 C87.5367,5.0649 88.6217,5.8819 89.0027,7.0099 C89.6927,9.0539 88.1527,11.0979 85.9977,10.9969 M93.7127,5.3179 C92.6687,2.2729 89.7617,0.1269 86.5327,0.0059 C82.1077,-0.1501 78.6687,3.1099 78.2207,7.1009 L1.7217,17.8519 C0.6327,18.0059 -0.1333,19.0219 0.0197,20.1109 C0.0967,20.6559 0.3837,21.1209 0.7997,21.4259 C1.2077,21.7419 1.7337,21.8909 2.2787,21.8129 L78.7767,11.0619 C80.1387,14.3549 83.5927,16.4439 87.2857,15.9259 C92.1877,15.2359 95.4167,10.2589 93.7127,5.3179" id="Fill-1" fill="#00EFFF" mask="url(#mask-2)"></path>
                </g>
                <g id="Group-3-Copy-7" transform="translate(0.000000, 370.000000)">
                    <mask id="mask-4" fill="white">
                        <use xlink:href="#path-3"></use>
                    </mask>
                    <g id="Clip-2"></g>
                    <path d="M85.9977,10.9969 C84.8087,10.9419 83.7247,10.1249 83.3437,8.9969 C82.6517,6.9529 84.1927,4.9089 86.3487,5.0099 C87.5367,5.0649 88.6217,5.8819 89.0027,7.0099 C89.6927,9.0539 88.1527,11.0979 85.9977,10.9969 M93.7127,5.3179 C92.6687,2.2729 89.7617,0.1269 86.5327,0.0059 C82.1077,-0.1501 78.6687,3.1099 78.2207,7.1009 L1.7217,17.8519 C0.6327,18.0059 -0.1333,19.0219 0.0197,20.1109 C0.0967,20.6559 0.3837,21.1209 0.7997,21.4259 C1.2077,21.7419 1.7337,21.8909 2.2787,21.8129 L78.7767,11.0619 C80.1387,14.3549 83.5927,16.4439 87.2857,15.9259 C92.1877,15.2359 95.4167,10.2589 93.7127,5.3179" id="Fill-1" fill="#FFFFFF" mask="url(#mask-4)"></path>
                </g>
                <g id="Group-3-Copy" transform="translate(67.000000, 224.000000)">
                    <mask id="mask-6" fill="white">
                        <use xlink:href="#path-5"></use>
                    </mask>
                    <g id="Clip-2"></g>
                    <path d="M85.9977,10.9969 C84.8087,10.9419 83.7247,10.1249 83.3437,8.9969 C82.6517,6.9529 84.1927,4.9089 86.3487,5.0099 C87.5367,5.0649 88.6217,5.8819 89.0027,7.0099 C89.6927,9.0539 88.1527,11.0979 85.9977,10.9969 M93.7127,5.3179 C92.6687,2.2729 89.7617,0.1269 86.5327,0.0059 C82.1077,-0.1501 78.6687,3.1099 78.2207,7.1009 L1.7217,17.8519 C0.6327,18.0059 -0.1333,19.0219 0.0197,20.1109 C0.0967,20.6559 0.3837,21.1209 0.7997,21.4259 C1.2077,21.7419 1.7337,21.8909 2.2787,21.8129 L78.7767,11.0619 C80.1387,14.3549 83.5927,16.4439 87.2857,15.9259 C92.1877,15.2359 95.4167,10.2589 93.7127,5.3179" id="Fill-1" fill="#00EFFF" mask="url(#mask-6)"></path>
                </g>
                <g id="Group-3" transform="translate(99.000000, 279.000000)">
                    <mask id="mask-8" fill="white">
                        <use xlink:href="#path-7"></use>
                    </mask>
                    <g id="Clip-2"></g>
                    <path d="M101.5037,10.972 C99.8597,11.202 98.3467,10.063 98.1147,8.418 C97.8847,6.775 99.0247,5.261 100.6687,5.031 C102.3127,4.799 103.8257,5.94 104.0577,7.583 C104.2877,9.227 103.1477,10.741 101.5037,10.972 M8.4187,24.054 C6.7747,24.285 5.2617,23.145 5.0297,21.501 C4.7987,19.857 5.9397,18.343 7.5837,18.113 C9.2277,17.881 10.7407,19.022 10.9717,20.665 C11.2027,22.31 10.0627,23.824 8.4187,24.054 M99.9727,0.078 C96.2787,0.598 93.5347,3.559 93.1337,7.099 L15.3977,18.024 C14.0357,14.732 10.5817,12.642 6.8877,13.161 C2.5107,13.777 -0.5363,17.82 0.0787,22.197 C0.6937,26.574 4.7377,29.62 9.1147,29.005 C12.8077,28.487 15.5527,25.526 15.9537,21.986 L93.6907,11.06 C95.0517,14.353 98.5057,16.443 102.1997,15.923 C106.5767,15.308 109.6237,11.265 109.0087,6.888 C108.3937,2.511 104.3497,-0.536 99.9727,0.078" id="Fill-1" fill="#FFFFFF" mask="url(#mask-8)"></path>
                </g>
                <g id="Group-3-Copy-2" transform="translate(79.000000, 133.000000)">
                    <mask id="mask-10" fill="white">
                        <use xlink:href="#path-9"></use>
                    </mask>
                    <g id="Clip-2"></g>
                    <path d="M101.5037,10.972 C99.8597,11.202 98.3467,10.063 98.1147,8.418 C97.8847,6.775 99.0247,5.261 100.6687,5.031 C102.3127,4.799 103.8257,5.94 104.0577,7.583 C104.2877,9.227 103.1477,10.741 101.5037,10.972 M8.4187,24.054 C6.7747,24.285 5.2617,23.145 5.0297,21.501 C4.7987,19.857 5.9397,18.343 7.5837,18.113 C9.2277,17.881 10.7407,19.022 10.9717,20.665 C11.2027,22.31 10.0627,23.824 8.4187,24.054 M99.9727,0.078 C96.2787,0.598 93.5347,3.559 93.1337,7.099 L15.3977,18.024 C14.0357,14.732 10.5817,12.642 6.8877,13.161 C2.5107,13.777 -0.5363,17.82 0.0787,22.197 C0.6937,26.574 4.7377,29.62 9.1147,29.005 C12.8077,28.487 15.5527,25.526 15.9537,21.986 L93.6907,11.06 C95.0517,14.353 98.5057,16.443 102.1997,15.923 C106.5767,15.308 109.6237,11.265 109.0087,6.888 C108.3937,2.511 104.3497,-0.536 99.9727,0.078" id="Fill-1" fill="#3057FF" mask="url(#mask-10)"></path>
                </g>
                <g id="Group-3" transform="translate(239.000000, 112.000000)">
                    <mask id="mask-12" fill="white">
                        <use xlink:href="#path-11"></use>
                    </mask>
                    <g id="Clip-2"></g>
                    <path d="M85.9977,10.9969 C84.8087,10.9419 83.7247,10.1249 83.3437,8.9969 C82.6517,6.9529 84.1927,4.9089 86.3487,5.0099 C87.5367,5.0649 88.6217,5.8819 89.0027,7.0099 C89.6927,9.0539 88.1527,11.0979 85.9977,10.9969 M93.7127,5.3179 C92.6687,2.2729 89.7617,0.1269 86.5327,0.0059 C82.1077,-0.1501 78.6687,3.1099 78.2207,7.1009 L1.7217,17.8519 C0.6327,18.0059 -0.1333,19.0219 0.0197,20.1109 C0.0967,20.6559 0.3837,21.1209 0.7997,21.4259 C1.2077,21.7419 1.7337,21.8909 2.2787,21.8129 L78.7767,11.0619 C80.1387,14.3549 83.5927,16.4439 87.2857,15.9259 C92.1877,15.2359 95.4167,10.2589 93.7127,5.3179" id="Fill-1" fill="#3057FF" mask="url(#mask-12)"></path>
                </g>
                <g id="Group-3-Copy-6" transform="translate(124.000000, 8.000000)">
                    <mask id="mask-14" fill="white">
                        <use xlink:href="#path-13"></use>
                    </mask>
                    <g id="Clip-2"></g>
                    <path d="M85.9977,10.9969 C84.8087,10.9419 83.7247,10.1249 83.3437,8.9969 C82.6517,6.9529 84.1927,4.9089 86.3487,5.0099 C87.5367,5.0649 88.6217,5.8819 89.0027,7.0099 C89.6927,9.0539 88.1527,11.0979 85.9977,10.9969 M93.7127,5.3179 C92.6687,2.2729 89.7617,0.1269 86.5327,0.0059 C82.1077,-0.1501 78.6687,3.1099 78.2207,7.1009 L1.7217,17.8519 C0.6327,18.0059 -0.1333,19.0219 0.0197,20.1109 C0.0967,20.6559 0.3837,21.1209 0.7997,21.4259 C1.2077,21.7419 1.7337,21.8909 2.2787,21.8129 L78.7767,11.0619 C80.1387,14.3549 83.5927,16.4439 87.2857,15.9259 C92.1877,15.2359 95.4167,10.2589 93.7127,5.3179" id="Fill-1" fill="#3057FF" mask="url(#mask-14)"></path>
                </g>
                <path d="M301,11 C299.34,11 298,9.66 298,8 C298,6.34 299.34,5 301,5 C302.66,5 304,6.34 304,8 C304,9.66 302.66,11 301,11 M301,0 C296.58,0 293,3.58 293,8 C293,12.42 296.58,16 301,16 C305.42,16 309,12.42 309,8 C309,3.58 305.42,0 301,0" id="Fill-1" fill="#00B7FF"></path>
                <path d="M197,81 C195.34,81 194,79.66 194,78 C194,76.34 195.34,75 197,75 C198.66,75 200,76.34 200,78 C200,79.66 198.66,81 197,81 M197,70 C192.58,70 189,73.58 189,78 C189,82.42 192.58,86 197,86 C201.42,86 205,82.42 205,78 C205,73.58 201.42,70 197,70" id="Fill-1-Copy-3" fill="#00EFFF"></path>
                <path d="M385,109 C385,107.34 386.34,106 388,106 C389.66,106 391,107.34 391,109 C391,110.66 389.66,112 388,112 C386.34,112 385,110.66 385,109 Z M380,109 C380,113.42 383.58,117 388,117 C392.42,117 396,113.42 396,109 C396,104.58 392.42,101 388,101 C383.58,101 380,104.58 380,109 Z" id="Fill-1-Copy-2" fill="#00EFFF"></path>
                <path d="M275,272 C275,270.34 276.34,269 278,269 C279.66,269 281,270.34 281,272 C281,273.66 279.66,275 278,275 C276.34,275 275,273.66 275,272 Z M270,272 C270,276.42 273.58,280 278,280 C282.42,280 286,276.42 286,272 C286,267.58 282.42,264 278,264 C273.58,264 270,267.58 270,272 Z" id="Fill-1-Copy-4" fill="#00EFFF"></path>
                <path d="M159,360 C159,358.34 160.34,357 162,357 C163.66,357 165,358.34 165,360 C165,361.66 163.66,363 162,363 C160.34,363 159,361.66 159,360 Z M154,360 C154,364.42 157.58,368 162,368 C166.42,368 170,364.42 170,360 C170,355.58 166.42,352 162,352 C157.58,352 154,355.58 154,360 Z" id="Fill-1-Copy-5" fill="#00EFFF"></path>
                <path d="M249,344 C249,342.34 250.34,341 252,341 C253.66,341 255,342.34 255,344 C255,345.66 253.66,347 252,347 C250.34,347 249,345.66 249,344 Z M244,344 C244,348.42 247.58,352 252,352 C256.42,352 260,348.42 260,344 C260,339.58 256.42,336 252,336 C247.58,336 244,339.58 244,344 Z" id="Fill-1-Copy-6" fill="#FFFFFF"></path>
                <path d="M82,34 C80.34,34 79,32.66 79,31 C79,29.34 80.34,28 82,28 C83.66,28 85,29.34 85,31 C85,32.66 83.66,34 82,34 M82,23 C77.58,23 74,26.58 74,31 C74,35.42 77.58,39 82,39 C86.42,39 90,35.42 90,31 C90,26.58 86.42,23 82,23" id="Fill-1-Copy" fill="#00B7FF"></path>
                <g id="Group-3-Copy-3" transform="translate(43.000000, 75.000000)">
                    <mask id="mask-16" fill="white">
                        <use xlink:href="#path-15"></use>
                    </mask>
                    <g id="Clip-2"></g>
                    <path d="M85.9977,10.9969 C84.8087,10.9419 83.7247,10.1249 83.3437,8.9969 C82.6517,6.9529 84.1927,4.9089 86.3487,5.0099 C87.5367,5.0649 88.6217,5.8819 89.0027,7.0099 C89.6927,9.0539 88.1527,11.0979 85.9977,10.9969 M93.7127,5.3179 C92.6687,2.2729 89.7617,0.1269 86.5327,0.0059 C82.1077,-0.1501 78.6687,3.1099 78.2207,7.1009 L1.7217,17.8519 C0.6327,18.0059 -0.1333,19.0219 0.0197,20.1109 C0.0967,20.6559 0.3837,21.1209 0.7997,21.4259 C1.2077,21.7419 1.7337,21.8909 2.2787,21.8129 L78.7767,11.0619 C80.1387,14.3549 83.5927,16.4439 87.2857,15.9259 C92.1877,15.2359 95.4167,10.2589 93.7127,5.3179" id="Fill-1" fill="#3057FF" mask="url(#mask-16)"></path>
                </g>
                <g id="Group-3" transform="translate(269.000000, 42.000000)">
                    <mask id="mask-18" fill="white">
                        <use xlink:href="#path-17"></use>
                    </mask>
                    <g id="Clip-2"></g>
                    <path d="M101.5037,10.972 C99.8597,11.202 98.3467,10.063 98.1147,8.418 C97.8847,6.775 99.0247,5.261 100.6687,5.031 C102.3127,4.799 103.8257,5.94 104.0577,7.583 C104.2877,9.227 103.1477,10.741 101.5037,10.972 M8.4187,24.054 C6.7747,24.285 5.2617,23.145 5.0297,21.501 C4.7987,19.857 5.9397,18.343 7.5837,18.113 C9.2277,17.881 10.7407,19.022 10.9717,20.665 C11.2027,22.31 10.0627,23.824 8.4187,24.054 M99.9727,0.078 C96.2787,0.598 93.5347,3.559 93.1337,7.099 L15.3977,18.024 C14.0357,14.732 10.5817,12.642 6.8877,13.161 C2.5107,13.777 -0.5363,17.82 0.0787,22.197 C0.6937,26.574 4.7377,29.62 9.1147,29.005 C12.8077,28.487 15.5527,25.526 15.9537,21.986 L93.6907,11.06 C95.0517,14.353 98.5057,16.443 102.1997,15.923 C106.5767,15.308 109.6237,11.265 109.0087,6.888 C108.3937,2.511 104.3497,-0.536 99.9727,0.078" id="Fill-1" fill="#00B7FF" mask="url(#mask-18)"></path>
                </g>
            </g>
        </g>
    </g>
</svg>