<?xml version="1.0" encoding="UTF-8"?>
<svg width="auto" height="auto" viewBox="0 0 193 103" version="1.1" xmlns="http://www.w3.org/2000/svg" xmlns:xlink="http://www.w3.org/1999/xlink">
    <!-- Generator: Sketch 59.1 (86144) - https://sketch.com -->
    <title>Group 2</title>
    <desc>Created with Sketch.</desc>
    <g id="Website" stroke="none" stroke-width="1" fill="none" fill-rule="evenodd">
        <g id="Landing-page" transform="translate(-716.000000, -1537.000000)">
            <g id="Group-2" transform="translate(716.000000, 1538.000000)">
                <path d="M4,100 C4,44.771525 48.771525,1.01453063e-14 104,0 L192,0 L192,0" id="Path-Copy-3" stroke="#00B7FF" stroke-width="2" stroke-linecap="round" stroke-linejoin="round" stroke-dasharray="3,8"></path>
                <path d="M5.78885438,99.5777088 L7.2763932,102.552786 C7.52338245,103.046765 7.3231581,103.647438 6.82917961,103.894427 C6.69032417,103.963855 6.53721111,104 6.38196601,104 L1.61803399,104 C1.06574924,104 0.618033989,103.552285 0.618033989,103 C0.618033989,102.844755 0.654179081,102.691642 0.723606798,102.552786 L2.21114562,99.5777088 C2.70512412,98.5897518 3.9064702,98.1893031 4.89442719,98.6832816 C5.281482,98.876809 5.59532698,99.190654 5.78885438,99.5777088 Z" id="Triangle-Copy-5" fill="#3057FF" transform="translate(4.000000, 100.000000) scale(-1, -1) translate(-4.000000, -100.000000) "></path>
            </g>
        </g>
    </g>
</svg>