<?xml version="1.0" encoding="UTF-8"?>
<svg width="249px" height="137px" viewBox="0 0 249 137" version="1.1" xmlns="http://www.w3.org/2000/svg" xmlns:xlink="http://www.w3.org/1999/xlink">
    <!-- Generator: Sketch 59.1 (86144) - https://sketch.com -->
    <title>Group 11</title>
    <desc>Created with Sketch.</desc>
    <defs>
        <polygon id="path-1" points="0.000237306181 0.000524505524 94.172 0.000524505524 94.172 21.8333165 0.000237306181 21.8333165"></polygon>
        <polygon id="path-3" points="0.000237306181 0.000524505524 94.172 0.000524505524 94.172 21.8333165 0.000237306181 21.8333165"></polygon>
        <polygon id="path-5" points="0.000237306181 0.000524505524 94.172 0.000524505524 94.172 21.8333165 0.000237306181 21.8333165"></polygon>
        <polygon id="path-7" points="0 0.0004 109.087 0.0004 109.087 29.0839231 0 29.0839231"></polygon>
    </defs>
    <g id="Website" stroke="none" stroke-width="1" fill="none" fill-rule="evenodd">
        <g id="Landing-page" transform="translate(0.000000, -3240.000000)">
            <g id="Group-11" transform="translate(-61.000000, 3240.000000)">
                <g id="Group-3-Copy-4" transform="translate(215.000000, 71.000000)">
                    <mask id="mask-2" fill="white">
                        <use xlink:href="#path-1"></use>
                    </mask>
                    <g id="Clip-2"></g>
                    <path d="M85.9977,10.9969 C84.8087,10.9419 83.7247,10.1249 83.3437,8.9969 C82.6517,6.9529 84.1927,4.9089 86.3487,5.0099 C87.5367,5.0649 88.6217,5.8819 89.0027,7.0099 C89.6927,9.0539 88.1527,11.0979 85.9977,10.9969 M93.7127,5.3179 C92.6687,2.2729 89.7617,0.1269 86.5327,0.0059 C82.1077,-0.1501 78.6687,3.1099 78.2207,7.1009 L1.7217,17.8519 C0.6327,18.0059 -0.1333,19.0219 0.0197,20.1109 C0.0967,20.6559 0.3837,21.1209 0.7997,21.4259 C1.2077,21.7419 1.7337,21.8909 2.2787,21.8129 L78.7767,11.0619 C80.1387,14.3549 83.5927,16.4439 87.2857,15.9259 C92.1877,15.2359 95.4167,10.2589 93.7127,5.3179" id="Fill-1" fill="#00EFFF" mask="url(#mask-2)"></path>
                </g>
                <g id="Group-3-Copy-9" transform="translate(0.000000, 16.000000)">
                    <mask id="mask-4" fill="white">
                        <use xlink:href="#path-3"></use>
                    </mask>
                    <g id="Clip-2"></g>
                    <path d="M85.9977,10.9969 C84.8087,10.9419 83.7247,10.1249 83.3437,8.9969 C82.6517,6.9529 84.1927,4.9089 86.3487,5.0099 C87.5367,5.0649 88.6217,5.8819 89.0027,7.0099 C89.6927,9.0539 88.1527,11.0979 85.9977,10.9969 M93.7127,5.3179 C92.6687,2.2729 89.7617,0.1269 86.5327,0.0059 C82.1077,-0.1501 78.6687,3.1099 78.2207,7.1009 L1.7217,17.8519 C0.6327,18.0059 -0.1333,19.0219 0.0197,20.1109 C0.0967,20.6559 0.3837,21.1209 0.7997,21.4259 C1.2077,21.7419 1.7337,21.8909 2.2787,21.8129 L78.7767,11.0619 C80.1387,14.3549 83.5927,16.4439 87.2857,15.9259 C92.1877,15.2359 95.4167,10.2589 93.7127,5.3179" id="Fill-1" fill="#FFFFFF" mask="url(#mask-4)"></path>
                </g>
                <g id="Group-3-Copy-5" transform="translate(136.000000, 49.000000)">
                    <mask id="mask-6" fill="white">
                        <use xlink:href="#path-5"></use>
                    </mask>
                    <g id="Clip-2"></g>
                    <path d="M85.9977,10.9969 C84.8087,10.9419 83.7247,10.1249 83.3437,8.9969 C82.6517,6.9529 84.1927,4.9089 86.3487,5.0099 C87.5367,5.0649 88.6217,5.8819 89.0027,7.0099 C89.6927,9.0539 88.1527,11.0979 85.9977,10.9969 M93.7127,5.3179 C92.6687,2.2729 89.7617,0.1269 86.5327,0.0059 C82.1077,-0.1501 78.6687,3.1099 78.2207,7.1009 L1.7217,17.8519 C0.6327,18.0059 -0.1333,19.0219 0.0197,20.1109 C0.0967,20.6559 0.3837,21.1209 0.7997,21.4259 C1.2077,21.7419 1.7337,21.8909 2.2787,21.8129 L78.7767,11.0619 C80.1387,14.3549 83.5927,16.4439 87.2857,15.9259 C92.1877,15.2359 95.4167,10.2589 93.7127,5.3179" id="Fill-1" fill="#FFFFFF" mask="url(#mask-6)"></path>
                </g>
                <g id="Group-3-Copy-8" transform="translate(95.000000, 107.000000)">
                    <mask id="mask-8" fill="white">
                        <use xlink:href="#path-7"></use>
                    </mask>
                    <g id="Clip-2"></g>
                    <path d="M101.5037,10.972 C99.8597,11.202 98.3467,10.063 98.1147,8.418 C97.8847,6.775 99.0247,5.261 100.6687,5.031 C102.3127,4.799 103.8257,5.94 104.0577,7.583 C104.2877,9.227 103.1477,10.741 101.5037,10.972 M8.4187,24.054 C6.7747,24.285 5.2617,23.145 5.0297,21.501 C4.7987,19.857 5.9397,18.343 7.5837,18.113 C9.2277,17.881 10.7407,19.022 10.9717,20.665 C11.2027,22.31 10.0627,23.824 8.4187,24.054 M99.9727,0.078 C96.2787,0.598 93.5347,3.559 93.1337,7.099 L15.3977,18.024 C14.0357,14.732 10.5817,12.642 6.8877,13.161 C2.5107,13.777 -0.5363,17.82 0.0787,22.197 C0.6937,26.574 4.7377,29.62 9.1147,29.005 C12.8077,28.487 15.5527,25.526 15.9537,21.986 L93.6907,11.06 C95.0517,14.353 98.5057,16.443 102.1997,15.923 C106.5767,15.308 109.6237,11.265 109.0087,6.888 C108.3937,2.511 104.3497,-0.536 99.9727,0.078" id="Fill-1" fill="#FFFFFF" mask="url(#mask-8)"></path>
                </g>
                <path d="M164,8 C164,6.34 165.34,5 167,5 C168.66,5 170,6.34 170,8 C170,9.66 168.66,11 167,11 C165.34,11 164,9.66 164,8 Z M159,8 C159,12.42 162.58,16 167,16 C171.42,16 175,12.42 175,8 C175,3.58 171.42,0 167,0 C162.58,0 159,3.58 159,8 Z" id="Fill-1-Copy-7" fill="#00EFFF"></path>
                <path d="M84,79 C84,77.34 85.34,76 87,76 C88.66,76 90,77.34 90,79 C90,80.66 88.66,82 87,82 C85.34,82 84,80.66 84,79 Z M79,79 C79,83.42 82.58,87 87,87 C91.42,87 95,83.42 95,79 C95,74.58 91.42,71 87,71 C82.58,71 79,74.58 79,79 Z" id="Fill-1-Copy-8" fill="#00EFFF"></path>
            </g>
        </g>
    </g>
</svg>