<?xml version="1.0" encoding="UTF-8"?>
<svg width="189px" height="105px" viewBox="0 0 189 105" version="1.1" xmlns="http://www.w3.org/2000/svg" xmlns:xlink="http://www.w3.org/1999/xlink">
    <!-- Generator: Sketch 59.1 (86144) - https://sketch.com -->
    <title>Group 4</title>
    <desc>Created with Sketch.</desc>
    <g id="Website" stroke="none" stroke-width="1" fill="none" fill-rule="evenodd">
        <g id="Landing-page" transform="translate(-1032.000000, -1534.000000)">
            <g id="Group-4" transform="translate(1030.000000, 1534.000000)">
                <path d="M8,104 C8,48.771525 52.771525,4 108,4 L190,4 L190,4" id="Path" stroke="#00B7FF" stroke-width="2" stroke-linecap="round" stroke-linejoin="round" stroke-dasharray="3,8" transform="translate(99.000000, 54.000000) scale(-1, 1) translate(-99.000000, -54.000000) "></path>
                <path d="M5.78885438,3.57770876 L7.2763932,6.5527864 C7.52338245,7.0467649 7.3231581,7.64743794 6.82917961,7.89442719 C6.69032417,7.96385491 6.53721111,8 6.38196601,8 L1.61803399,8 C1.06574924,8 0.618033989,7.55228475 0.618033989,7 C0.618033989,6.8447549 0.654179081,6.69164184 0.723606798,6.5527864 L2.21114562,3.57770876 C2.70512412,2.58975177 3.9064702,2.18930308 4.89442719,2.68328157 C5.281482,2.87680898 5.59532698,3.19065396 5.78885438,3.57770876 Z" id="Triangle-Copy-4" fill="#3057FF" transform="translate(4.000000, 4.000000) scale(-1, 1) rotate(90.000000) translate(-4.000000, -4.000000) "></path>
            </g>
        </g>
    </g>
</svg>