<?xml version="1.0" encoding="UTF-8"?>
<svg width="auto" height="auto" viewBox="0 0 193 103" version="1.1" xmlns="http://www.w3.org/2000/svg" xmlns:xlink="http://www.w3.org/1999/xlink">
    <!-- Generator: Sketch 59.1 (86144) - https://sketch.com -->
    <title>Group 7</title>
    <desc>Created with Sketch.</desc>
    <g id="Website" stroke="none" stroke-width="1" fill="none" fill-rule="evenodd">
        <g id="Landing-page" transform="translate(-1031.000000, -1860.000000)">
            <g id="Group-7" transform="translate(1032.000000, 1858.000000)">
                <path d="M0,104 C-6.76353751e-15,48.771525 44.771525,4 100,4 L188,4 L188,4" id="Path-Copy-2" stroke="#00B7FF" stroke-width="2" stroke-linecap="round" stroke-linejoin="round" stroke-dasharray="3,8" transform="translate(94.000000, 54.000000) scale(-1, -1) translate(-94.000000, -54.000000) "></path>
                <path d="M189.788854,3.57770876 L191.276393,6.5527864 C191.523382,7.0467649 191.323158,7.64743794 190.82918,7.89442719 C190.690324,7.96385491 190.537211,8 190.381966,8 L185.618034,8 C185.065749,8 184.618034,7.55228475 184.618034,7 C184.618034,6.8447549 184.654179,6.69164184 184.723607,6.5527864 L186.211146,3.57770876 C186.705124,2.58975177 187.90647,2.18930308 188.894427,2.68328157 C189.281482,2.87680898 189.595327,3.19065396 189.788854,3.57770876 Z" id="Triangle-Copy-7" fill="#3057FF"></path>
            </g>
        </g>
    </g>
</svg>