<?xml version="1.0" encoding="UTF-8"?>
<svg width="190px" height="105px" viewBox="0 0 190 105" version="1.1" xmlns="http://www.w3.org/2000/svg" xmlns:xlink="http://www.w3.org/1999/xlink">
    <!-- Generator: Sketch 59.1 (86144) - https://sketch.com -->
    <title>Group 8</title>
    <desc>Created with Sketch.</desc>
    <g id="Website" stroke="none" stroke-width="1" fill="none" fill-rule="evenodd">
        <g id="Landing-page" transform="translate(-719.000000, -1861.000000)">
            <g id="Group-8" transform="translate(720.000000, 1862.000000)">
                <path d="M0,100 C2.16581719e-14,44.771525 44.771525,1.01453063e-14 100,0 L183,0 L183,0" id="Path-Copy" stroke="#00B7FF" stroke-width="2" stroke-linecap="round" stroke-linejoin="round" stroke-dasharray="3,8" transform="translate(91.500000, 50.000000) scale(1, -1) translate(-91.500000, -50.000000) "></path>
                <path d="M188.788854,99.5777088 L190.276393,102.552786 C190.523382,103.046765 190.323158,103.647438 189.82918,103.894427 C189.690324,103.963855 189.537211,104 189.381966,104 L184.618034,104 C184.065749,104 183.618034,103.552285 183.618034,103 C183.618034,102.844755 183.654179,102.691642 183.723607,102.552786 L185.211146,99.5777088 C185.705124,98.5897518 186.90647,98.1893031 187.894427,98.6832816 C188.281482,98.876809 188.595327,99.190654 188.788854,99.5777088 Z" id="Triangle-Copy-6" fill="#3057FF" transform="translate(187.000000, 100.000000) scale(1, -1) rotate(90.000000) translate(-187.000000, -100.000000) "></path>
            </g>
        </g>
    </g>
</svg>