<?xml version="1.0" encoding="UTF-8"?>
<svg width="46px" height="46px" viewBox="0 0 46 46" version="1.1" xmlns="http://www.w3.org/2000/svg" xmlns:xlink="http://www.w3.org/1999/xlink">
    <!-- Generator: Sketch 59.1 (86144) - https://sketch.com -->
    <title>Logo-icon</title>
    <desc>Created with Sketch.</desc>
    <g id="Website" stroke="none" stroke-width="1" fill="none" fill-rule="evenodd">
        <g id="Landing-page" transform="translate(-697.000000, -6554.000000)" fill="#9FA6B5" fill-rule="nonzero">
            <g id="Logo-icon" transform="translate(697.000000, 6554.000000)">
                <path d="M23,40.6762039 C23.6951417,40.674899 24.3621119,40.9495246 24.8531429,41.4392417 C25.7377868,42.3187636 25.8749573,43.6977644 25.1807612,44.73285 C24.486565,45.7679355 23.1543613,46.1707964 21.9989232,45.6950438 C20.8434851,45.2192912 20.1866446,43.9974396 20.430124,42.776771 C20.6736034,41.5561024 21.7495847,40.676618 23,40.6762039 Z M23.1682553,42.4269474 C22.7580106,42.3454333 22.3470917,42.563929 22.1871183,42.9486423 C22.0271449,43.3333555 22.1627463,43.7769591 22.5108891,44.0078194 C22.8590318,44.2386797 23.3225914,44.1923915 23.6177143,43.8972986 C23.7816017,43.7347868 23.8734721,43.5138514 23.8729074,43.2836019 C23.8736206,42.8672448 23.5785,42.5084615 23.1682553,42.4269474 Z M29.7904762,33.9146407 C30.4855939,33.9134557 31.1525194,34.1880629 31.643619,34.6776777 C32.528263,35.5571996 32.6654335,36.9362004 31.9712373,37.971286 C31.2770412,39.0063715 29.9448375,39.4092325 28.7893994,38.9334798 C27.6339613,38.4577272 26.9771208,37.2358756 27.2206002,36.015207 C27.4640796,34.7945385 28.5400609,33.915054 29.7904762,33.9146407 Z M16.2095238,33.9146376 C16.9050449,33.9130446 17.5724632,34.1876923 18.0637619,34.6776777 C18.9483327,35.5571275 19.0855618,36.9359871 18.3915312,37.9710594 C17.6975005,39.0061316 16.3654897,39.4091608 15.210047,38.9336873 C14.0546044,38.4582138 13.3975075,37.2366516 13.6405827,36.0160077 C13.883658,34.7953638 14.9592118,33.9155737 16.2095238,33.9146376 Z M29.7899286,35.6457898 C29.4349276,35.6457898 29.1150096,35.8589833 28.9797892,36.1856671 C28.8445688,36.5123509 28.9207723,36.8879559 29.1727619,37.1368246 C29.5143808,37.4742126 30.0654763,37.4742126 30.4070952,37.1368246 C30.6590849,36.8879559 30.7352884,36.5123509 30.600068,36.1856671 C30.4648476,35.8589833 30.1449295,35.6457898 29.7899286,35.6457898 Z M16.2100714,35.6457898 C15.8550705,35.6457898 15.5351524,35.8589833 15.399932,36.1856671 C15.2647116,36.5123509 15.3409151,36.8879559 15.5929048,37.1368246 C15.9345237,37.4742126 16.4856192,37.4742126 16.8272381,37.1368246 C17.0792277,36.8879559 17.1554312,36.5123509 17.0202108,36.1856671 C16.8849904,35.8589833 16.5650724,35.6457898 16.2100714,35.6457898 Z M21.3678606,14.1974051 C22.3231367,13.4407004 23.6768633,13.4407004 24.6321394,14.1974051 C25.5874154,14.9541097 25.8911815,16.2670626 25.364619,17.3633649 L25.364619,17.3633649 L28.6645714,20.6476777 C29.6663352,20.1704224 30.8616262,20.3739861 31.6469534,21.1555914 C32.4322806,21.9371967 32.6368137,23.1268228 32.1572857,24.1238389 L32.1572857,24.1238389 L35.4572381,27.4081517 C35.8099933,27.2410253 36.1957444,27.154261 36.5864286,27.1541706 C37.7531922,27.1537432 38.7796204,27.9213062 39.1039513,29.0367741 C39.4282822,30.1522419 38.9723386,31.3467403 37.9856574,31.9665229 C36.9989761,32.5863055 35.7193886,32.4819788 34.8472102,31.7106407 C33.9750319,30.9393025 33.7204941,29.6868775 34.2229048,28.6388152 L34.2229048,28.6388152 L30.9218571,25.3523223 C30.2085554,25.6938587 29.3778731,25.6938587 28.6645714,25.3523223 L28.6645714,25.3523223 L25.364619,28.6377251 C25.8911815,29.7340275 25.5874154,31.0469803 24.6321394,31.803685 C23.6768633,32.5603897 22.3231367,32.5603897 21.3678606,31.803685 C20.4125846,31.0469803 20.1088185,29.7340275 20.635381,28.6377251 L20.635381,28.6377251 L17.3354286,25.3523223 C16.6221269,25.6938587 15.7914446,25.6938587 15.0781429,25.3523223 L15.0781429,25.3523223 L11.7770952,28.6388152 C12.327082,29.7866193 11.9661122,31.1618432 10.922338,31.8952715 C9.87856377,32.6286998 8.45566942,32.5069429 7.55300049,31.6069577 C6.65033157,30.7069726 6.53051796,29.2906081 7.26928828,28.2530827 C8.00805861,27.2155574 9.39046899,26.8587372 10.5427619,27.4081517 L10.5427619,27.4081517 L13.8427143,24.1238389 C13.3631863,23.1268228 13.5677194,21.9371967 14.3530466,21.1555914 C15.1383738,20.3739861 16.3336648,20.1704224 17.3354286,20.6476777 L17.3354286,20.6476777 L20.635381,17.3633649 C20.1088185,16.2670626 20.4125846,14.9541097 21.3678606,14.1974051 Z M37.1986667,29.1467773 C36.9486129,28.8959819 36.5712192,28.8201395 36.2429798,28.9547191 C35.9147404,29.0892986 35.7005316,29.4077005 35.7005316,29.761019 C35.7005316,30.1143374 35.9147404,30.4327393 36.2429798,30.5673188 C36.5712192,30.7018984 36.9486129,30.626056 37.1986667,30.3752607 L37.1986667,30.3752607 C37.3684349,30.212332 37.460327,29.9907077 37.4593066,29.7598802 C37.4582691,29.5290527 37.3644048,29.3082486 37.1986667,29.1467773 Z M10.0312857,29.1467773 C9.78123192,28.8959819 9.40383827,28.8201395 9.07559885,28.9547191 C8.74735942,29.0892986 8.53315066,29.4077005 8.53315066,29.761019 C8.53315066,30.1143374 8.74735942,30.4327393 9.07559885,30.5673188 C9.40383827,30.7018984 9.78123192,30.626056 10.0312857,30.3752607 C10.1962987,30.2130595 10.2891754,29.9918458 10.2891754,29.761019 C10.2891754,29.5301922 10.1962987,29.3089784 10.0312857,29.1467773 Z M23.1734185,28.9020372 C22.764068,28.8197745 22.3532751,29.0364765 22.1918851,29.4198171 C22.0304952,29.8031577 22.1633679,30.2465837 22.5093665,30.4793228 C22.855365,30.7120619 23.3183157,30.669422 23.6155238,30.3774408 L23.6155238,30.3774408 C23.7836198,30.2124932 23.8767697,29.99015 23.8761932,29.7582938 C23.8768942,29.3426619 23.582769,28.9843 23.1734185,28.9020372 Z M24.127,18.5940284 C23.4126185,18.9342002 22.5819054,18.9342002 21.8675238,18.5940284 L21.8675238,18.5940284 L18.5686667,21.8783412 C18.9098254,22.5894799 18.9098254,23.4159704 18.5686667,24.127109 L18.5686667,24.127109 L21.8675238,27.4103318 C22.5822625,27.0717302 23.4122613,27.0717302 24.127,27.4103318 L24.127,27.4103318 L27.4258571,24.127109 C27.0868928,23.4147261 27.0860879,22.5892017 27.4258571,21.8783412 L27.4258571,21.8783412 Z M21.3678606,0.675367137 C22.3231367,-0.0813375195 23.6768633,-0.0813375195 24.6321394,0.675367137 C25.5874154,1.43207179 25.8911815,2.74502465 25.364619,3.84132701 L25.364619,3.84132701 L28.6645714,7.12563981 C29.6663352,6.64838451 30.8616262,6.85194819 31.6469534,7.63355347 C32.4322806,8.41515876 32.6368137,9.60478489 32.1572857,10.6018009 L32.1572857,10.6018009 L35.4572381,13.8861137 C36.4590019,13.4088584 37.6542929,13.6124221 38.4396201,14.3940274 C39.2249473,15.1756327 39.4294803,16.3652588 38.9499524,17.3622749 L38.9499524,17.3622749 L42.251,20.6476777 C43.2529863,20.1707348 44.4482815,20.3747588 45.2333333,21.1567299 L45.2333333,21.1567299 C46.1726557,22.0948039 46.257645,23.5876137 45.427542,24.625658 C44.5974391,25.6637024 43.1167038,25.9162741 41.9866721,25.2125734 C40.8566404,24.5088728 40.4373254,23.0730896 41.0122857,21.8761611 L41.0122857,21.8761611 L37.7123333,18.5918483 C36.7108171,19.0686334 35.5160694,18.8650823 34.7309211,18.0839001 C33.9457728,17.302718 33.7408777,16.1136965 34.219619,15.1167773 L34.219619,15.1167773 L30.9185714,11.8302844 C30.5667076,11.999096 30.181088,12.0866602 29.7904762,12.0864455 C28.8908029,12.0856848 28.054399,11.6257103 27.5749585,10.8680369 C27.0955179,10.1103635 27.040056,9.16089739 27.4280476,8.35303318 L27.4280476,8.35303318 L24.1291905,5.06872038 C23.4158888,5.41025677 22.5852065,5.41025677 21.8719048,5.06872038 L21.8719048,5.06872038 L18.5719524,8.35412322 C19.050143,9.35150214 18.8452533,10.5405183 18.0604762,11.3223223 C17.2756455,12.1048386 16.0797605,12.3085262 15.0781429,11.8302844 L15.0781429,11.8302844 L11.7770952,15.1167773 C12.2558366,16.1136965 12.0509414,17.302718 11.2657932,18.0839001 C10.4806449,18.8650823 9.28589723,19.0686334 8.28438095,18.5918483 L8.28438095,18.5918483 L4.98442857,21.8761611 C5.53443561,23.0213654 5.17552612,24.3943779 4.13448987,25.1276117 C3.09345363,25.8608455 1.67307114,25.7410429 0.770861825,24.8439055 C-0.131347491,23.9467681 -0.252980288,22.533224 0.482821461,21.4964717 C1.21862321,20.4597194 2.59785502,20.1012933 3.749,20.6476777 L3.749,20.6476777 L7.05004762,17.3622749 C6.57051968,16.3652588 6.7750527,15.1756327 7.56037992,14.3940274 C8.34570713,13.6124221 9.54099815,13.4088584 10.5427619,13.8861137 L10.5427619,13.8861137 L13.8427143,10.6018009 C13.3631863,9.60478489 13.5677194,8.41515876 14.3530466,7.63355347 C15.1383738,6.85194819 16.3336648,6.64838451 17.3354286,7.12563981 L17.3354286,7.12563981 L20.635381,3.84132701 C20.1088185,2.74502465 20.4125846,1.43207179 21.3678606,0.675367137 Z M30.4081905,22.3873934 C30.1580139,22.1369165 29.7807407,22.0613565 29.4526907,22.1960266 C29.1246408,22.3306967 28.9105993,22.6490015 28.9105993,23.0021801 C28.9105993,23.3553587 29.1246408,23.6736635 29.4526907,23.8083336 C29.7807407,23.9430037 30.1580139,23.8674437 30.4081905,23.6169668 L30.4081905,23.6169668 C30.7480458,23.2743175 30.7470684,22.7266666 30.4081905,22.3873934 Z M43.980381,22.3852133 C43.7302043,22.1347364 43.3529311,22.0591764 43.0248812,22.1938465 C42.6968312,22.3285166 42.4827898,22.6468214 42.4827898,23 C42.4827898,23.3531786 42.6968312,23.6714834 43.0248812,23.8061535 C43.3529311,23.9408236 43.7302043,23.8652636 43.980381,23.6147867 L43.980381,23.6147867 L43.9968095,23.6147867 C44.3320273,23.27018 44.3246873,22.7208266 43.980381,22.3852133 Z M16.8217619,22.3873934 C16.4737737,22.0943644 15.958167,22.1158349 15.6359891,22.4367704 C15.3138111,22.757706 15.2926957,23.2708878 15.5874286,23.6169668 C15.9290475,23.9543547 16.480143,23.9543547 16.8217619,23.6169668 C17.1614816,23.2768394 17.1614816,22.7275208 16.8217619,22.3873934 Z M3.23752381,22.3852133 C2.88953556,22.0921843 2.3739289,22.1136548 2.05175097,22.4345903 C1.72957304,22.7555259 1.7084576,23.2687077 2.00319048,23.6147867 C2.3448094,23.9521747 2.89590489,23.9521747 3.23752381,23.6147867 C3.57724353,23.2746593 3.57724353,22.7253407 3.23752381,22.3852133 Z M37.1899048,15.6280095 C36.939851,15.3772141 36.5624573,15.3013718 36.2342179,15.4359513 C35.9059785,15.5705309 35.6917697,15.8889327 35.6917697,16.2422512 C35.6917697,16.5955697 35.9059785,16.9139715 36.2342179,17.0485511 C36.5624573,17.1831306 36.939851,17.1072883 37.1899048,16.8564929 L37.1899048,16.8564929 L37.2041429,16.8532227 C37.3668214,16.6895511 37.4568766,16.467863 37.4542014,16.2376557 C37.4515261,16.0074484 37.3563433,15.7878927 37.1899048,15.6280095 Z M10.028,15.6280095 C9.7779462,15.3772141 9.40055255,15.3013718 9.07231313,15.4359513 C8.74407371,15.5705309 8.52986495,15.8889327 8.52986495,16.2422512 C8.52986495,16.5955697 8.74407371,16.9139715 9.07231313,17.0485511 C9.40055255,17.1831306 9.7779462,17.1072883 10.028,16.8564929 L10.028,16.8564929 C10.1953967,16.6910009 10.2874146,16.4701358 10.2868003,16.239933 C10.2861799,16.0097303 10.1929788,15.7893571 10.028,15.6280095 Z M23.4867936,15.5181349 C23.1390803,15.2868948 22.6756397,15.3324494 22.3800952,15.6269194 L22.3800952,15.6269194 C22.2166922,15.7877163 22.1235994,16.0099232 22.1238082,16.2417062 C22.1230924,16.6579184 22.4180109,17.0166202 22.8280764,17.0982877 C23.2381418,17.1799552 23.649038,16.9618216 23.8092984,16.5773835 C23.9695589,16.1929454 23.8345069,15.7493749 23.4867936,15.5181349 Z M30.3994286,8.86862559 C30.149252,8.61814872 29.7719787,8.54258873 29.4439288,8.67725883 C29.1158789,8.81192893 28.9018374,9.13023368 28.9018374,9.48341232 C28.9018374,9.83659096 29.1158789,10.1548957 29.4439288,10.2895658 C29.7719787,10.4242359 30.149252,10.3486759 30.3994286,10.0981991 L30.3994286,10.0981991 L30.410381,10.0927488 C30.5720607,9.92899016 30.6617413,9.70800679 30.6596872,9.47842919 C30.6576332,9.24885159 30.5640128,9.02949273 30.3994286,8.86862559 Z M16.8184762,8.86862559 C16.5682996,8.61814872 16.1910264,8.54258873 15.8629764,8.67725883 C15.5349265,8.81192893 15.320885,9.13023368 15.320885,9.48341232 C15.320885,9.83659096 15.5349265,10.1548957 15.8629764,10.2895658 C16.1910264,10.4242359 16.5682996,10.3486759 16.8184762,10.0981991 L16.8184762,10.0981991 C17.161531,9.75298732 17.1590813,9.20538188 16.8184762,8.86862559 Z M23.1771782,1.85887045 C22.7688511,1.77496221 22.3576722,1.98904901 22.1940791,2.37073652 C22.030486,2.75242403 22.1597974,3.19597694 22.5032534,3.43123951 C22.8467093,3.66650208 23.3091653,3.62830172 23.6089524,3.33990521 L23.6089524,3.33990521 L23.6177143,3.33118483 C23.7832857,3.1690876 23.8764282,2.94754764 23.8761976,2.7163981 C23.8778655,2.30143763 23.5855053,1.94277868 23.1771782,1.85887045 Z" id="Combined-Shape"></path>
            </g>
        </g>
    </g>
</svg>