<?xml version="1.0" encoding="UTF-8"?>
<svg width="46px" height="46px" viewBox="0 0 46 46" version="1.1" xmlns="http://www.w3.org/2000/svg" xmlns:xlink="http://www.w3.org/1999/xlink">
    <!-- Generator: Sketch 59.1 (86144) - https://sketch.com -->
    <title>radar</title>
    <desc>Created with Sketch.</desc>
    <g id="Website" stroke="none" stroke-width="1" fill="none" fill-rule="evenodd">
        <g id="Landing-page" transform="translate(-432.000000, -1112.000000)" fill-rule="nonzero">
            <g id="radar" transform="translate(432.000000, 1112.000000)">
                <path d="M23,46 C10.31787,46 0,35.68213 0,23 C0,10.31787 10.31787,0 23,0 C35.68213,0 46,10.31787 46,23 C46,35.68213 35.68213,46 23,46 Z M23,2 C11.42041,2 2,11.42041 2,23 C2,34.57959 11.42041,44 23,44 C34.57959,44 44,34.57959 44,23 C44,11.42041 34.57959,2 23,2 Z" id="Shape" fill="#00B7FF"></path>
                <path d="M23,10 C15.82031,10 10,15.82031 10,23 C10,30.17969 15.82031,36 23,36 C30.17969,36 36,30.17969 36,23 C36,15.82031 30.17969,10 23,10 Z M23,34 C16.92487,34 12,29.07513 12,23 C12,16.92487 16.92487,12 23,12 C29.07513,12 34,16.92487 34,23 C34,29.07513 29.07513,34 23,34 Z" id="Shape" fill="#00B7FF"></path>
                <path d="M39.26349,6.73651 L23,23 L39.26349,39.26349 C43.42566,35.10132 46,29.35126 46,23 C46,16.64868 43.42566,10.89868 39.26349,6.73651 Z" id="Path" fill="#00EFFF"></path>
                <path d="M23.58785,25.94381 C21.47775,26.34673 19.65328,24.52226 20.0562,22.41216 C20.28012,21.23947 21.23947,20.28013 22.41216,20.0562 C24.52226,19.65328 26.34673,21.47775 25.94381,23.58785 C25.71988,24.76054 24.76054,25.71988 23.58785,25.94381 Z" id="Path" fill="#00B7FF"></path>
            </g>
        </g>
    </g>
</svg>