<?xml version="1.0" encoding="UTF-8"?>
<svg width="26px" height="32px" viewBox="0 0 26 32" version="1.1" xmlns="http://www.w3.org/2000/svg" xmlns:xlink="http://www.w3.org/1999/xlink">
    <!-- Generator: Sketch 59.1 (86144) - https://sketch.com -->
    <title>user-selected</title>
    <desc>Created with Sketch.</desc>
    <g id="Website" stroke="none" stroke-width="1" fill="none" fill-rule="evenodd">
        <g id="Individual-register-page" transform="translate(-507.000000, -372.000000)" fill="#00B7FF" fill-rule="nonzero">
            <g id="user-selected" transform="translate(507.000000, 372.000000)">
                <path d="M16,19 L10,19 C4.486,19 0,23.486 0,29 L0,29.65 L0.594,29.914 C0.786,29.999 5.375,32 13,32 C20.625,32 25.214,29.999 25.406,29.914 L26,29.65 L26,29 C26,23.486 21.514,19 16,19 Z" id="Path"></path>
                <path d="M13,17 C17.579,17 21,12.249 21,8 C21,3.589 17.411,0 13,0 C8.589,0 5,3.589 5,8 C5,12.249 8.421,17 13,17 Z" id="Path"></path>
            </g>
        </g>
    </g>
</svg>