<?xml version="1.0" encoding="UTF-8"?>
<svg width="32px" height="27px" viewBox="0 0 32 27" version="1.1" xmlns="http://www.w3.org/2000/svg" xmlns:xlink="http://www.w3.org/1999/xlink">
    <!-- Generator: Sketch 59.1 (86144) - https://sketch.com -->
    <title>users-wm</title>
    <desc>Created with Sketch.</desc>
    <g id="Website" stroke="none" stroke-width="1" fill="none" fill-rule="evenodd">
        <g id="Landing-page" transform="translate(-1204.000000, -1705.000000)" fill-rule="nonzero">
            <g id="users-wm" transform="translate(1204.000000, 1704.000000)">
                <path d="M29.728,19.432 L24.615,18.154 C24.239448,18.0604411 23.9516034,17.7585743 23.876,17.379 L23.493,15.453 C25.6279599,14.4777562 26.9982162,12.3471581 27,10 L27,7.252 C27.0514549,3.94597466 24.486087,1.18781813 21.185,1 C19.0667523,0.935768375 17.072226,1.99558628 15.94,3.787 C17.2584323,5.30508721 17.9892659,7.2453441 18,9.256 C17.8806419,10.9746568 18.2880874,12.6888581 19.168,14.17 C19.6010105,14.8653105 19.7318424,15.7071004 19.5302921,16.501035 C19.3287418,17.2949697 18.8122307,17.9724234 18.1,18.377 L18.374,18.455 C20.5162874,19.0745808 21.9931926,21.0329262 22,23.263 L22,27 C21.9966856,27.3414397 21.9344378,27.679743 21.816,28 L31,28 C31.5522847,28 32,27.5522847 32,27 L32,22.342 C32,20.9656709 31.0631903,19.7659892 29.728,19.432 L29.728,19.432 Z" id="Path" fill="#00EFFF"></path>
                <path d="M17.824,20.378 L13.51,19.146 C13.1911245,19.054688 12.9382758,18.811204 12.835,18.496 L12.493,17.453 C14.0658406,17.555497 15.6404372,17.2812368 17.086,16.653 C17.3332489,16.5219769 17.5149848,16.2941625 17.5877917,16.0239807 C17.6605986,15.7537989 17.6179375,15.4655154 17.47,15.228 C16.3941874,13.4311761 15.8821192,11.3529454 16,9.262 C16.0459144,5.97703864 13.515612,3.22936376 10.238,3.005 C8.60674613,2.94024263 7.01953451,3.54298835 5.84245658,4.67421346 C4.66537865,5.80543856 4.00007559,7.36746128 4,9 C4.15408821,11.1780213 3.64060216,13.3512673 2.528,15.23 C2.38092573,15.4674517 2.33896998,15.7552839 2.41214049,16.0248395 C2.48531101,16.2943951 2.66704744,16.5215063 2.914,16.652 C4.35956276,17.2802368 5.93415942,17.554497 7.507,17.452 L7.165,18.5 C7.06172419,18.815204 6.80887551,19.058688 6.49,19.15 L2.176,20.378 C0.887877926,20.745956 0,21.9233545 0,23.263 L0,27 C0,27.5522847 0.44771525,28 1,28 L19,28 C19.5522847,28 20,27.5522847 20,27 L20,23.263 C20,21.9233545 19.1121221,20.745956 17.824,20.378 Z" id="Path" fill="#00B7FF"></path>
            </g>
        </g>
    </g>
</svg>