<svg xmlns="http://www.w3.org/2000/svg" height="30" width="120" viewBox="-13.97784 -4.9807 121.14128 29.8842"><g fill="#000"><path d="M7.8916 9.6346c.5742 0 1.0756.0206 1.5194.1016.6316.1112 1.1674.9918 1.1674 1.4217 0 .2196 0 .4643-.0961.82-.1568.5465-1.228 2.5096-1.6746 3.2489-.537-.8712-1.8008-3.331-2.2373-4.2885-.1896-.4025-.286-.7365-.286-.8999 0-.3022.599-.4038 1.6072-.4038zm-7.1621 0c.5358.1333.8488.2446 1.2887 1.0328 1.5493 2.8422 3.1013 5.9764 4.6096 9.0605.1896.1595.412.195.7336.195.3104 0 .5302-.0355.728-.195.7183-1.357 2.6155-4.9987 3.434-6.4133.952 1.7487 2.5907 4.9383 3.2555 6.4133.1842.1595.4122.195.7226.195.3158 0 .5425-.0355.7252-.195 1.3283-2.8912 2.776-5.8928 4.2333-8.6837.5059-1.0058.7254-1.2763 1.7682-1.47l.4423-.0783c.2513-.2527.1867-.8463-.0935-.9603-.695.055-1.515.0838-2.4356.0838-.7883 0-1.5411-.0288-2.5864-.0838-.3158.114-.3158.765-.1235.9603l.5329.1028c.5425.1114.791.2487.791.3874 0 .1909-.0959.5728-.2924 1.058-.4986 1.2633-.9945 2.6017-1.761 4.1827-.6921-1.3134-1.5742-3.0841-2.1455-4.3958-.187-.4614-.2501-.6292-.2501-.8449 0-.1387.4367-.276 1.1677-.412l.4697-.0782c.228-.1113.2527-.9273-.0934-.9603-2.0194.055-3.5974.0838-5.588.0838H3.885c-1.3257 0-2.3341-.0288-3.628-.0838-.3227.1374-.3227.7377-.1041.9603z"/><path d="M27.101 9.4593c1.0686 0 1.673.5962 1.673 1.4986 0 .2745-.0633.5495-.2199.6277-.353.1924-.857.243-1.2979.243h-1.1677c-1.015 0-1.4518-.019-1.4518-.4064 0-.8765 1.1374-1.9629 2.4643-1.9629zm-.033 10.427c1.8928 0 4.2361-.7937 5.5274-3.1122 0-.4647-.4794-.6856-.8227-.6345-.8531 1.2618-2.0562 1.42-2.9381 1.42-2.9341 0-4.4534-1.9881-4.4534-4.036 0-.4353.066-.4902.7939-.4902H31.23c.9862 0 1.1401-.3818 1.1401-.8996 0-2.1045-1.7692-3.933-5.0536-3.933-3.941 0-6.8144 2.6776-6.8144 6.1183 0 2.975 2.3048 5.5672 6.5659 5.5672zM40.4352 9.6346c.5766 0 1.078.0206 1.5219.1016.6318.1112 1.1674.9918 1.1674 1.4217 0 .2196 0 .4643-.0934.82-.1621.5465-1.2333 2.5096-1.673 3.2489-.5426-.8712-1.801-3.331-2.2417-4.2885-.1868-.4025-.2858-.7365-.2858-.8999 0-.3022.5961-.4038 1.6046-.4038zm-7.1623 0c.5414.1333.8519.2446 1.2939 1.0328 1.544 2.8422 3.0992 5.9764 4.6101 9.0605.1922.1595.412.195.728.195.313 0 .5303-.0355.7239-.195.7293-1.357 2.6193-4.9987 3.4435-6.4133.9493 1.7487 2.5839 4.9383 3.2486 6.4133.191.1595.4094.195.7236.195.319 0 .5417-.0355.7285-.195 1.328-2.8912 2.78-5.8928 4.2348-8.6837.5054-1.0058.7228-1.2763 1.7638-1.47l.4462-.0783c.249-.2527.1828-.8463-.0973-.9603-.6978.055-1.514.0838-2.433.0838-.7912 0-1.5433-.0288-2.5865-.0838-.3199.114-.3199.765-.1262.9603l.536.1028c.5382.1114.7881.2487.7881.3874 0 .1909-.0947.5728-.2814 1.058-.5067 1.2633-1.0125 2.6017-1.772 4.1827-.6925-1.3134-1.5744-3.0841-2.143-4.3958-.191-.4614-.2541-.6292-.2541-.8449 0-.1387.4383-.276 1.169-.412l.4698-.0782c.2227-.1113.2555-.9273-.0934-.9603-2.018.055-3.6015.0838-5.588.0838h-6.3775c-1.32 0-2.334-.0288-3.6279-.0838-.3132.1374-.3132.7377-.0934.9603l.5659.1387z"/><path d="M60.3018 9.4593c1.7936 0 2.6786 2.2885 2.7127 4.9406.0273 2.4577-.5758 4.2315-2.3763 4.2315-1.8231 0-2.8693-2.1063-2.8693-4.9686 0-2.9714 1.1422-4.2035 2.5329-4.2035zm0 10.427c3.8778 0 7.2592-1.8819 7.2592-5.8733 0-3.8477-3.3516-5.8122-7.0741-5.8122-3.7265 0-7.2952 2.1554-7.265 6.062.0372 3.7637 3.3159 5.6235 7.0799 5.6235z"/><path d="M72.941 10.5144c.194 0 .4737.029 1.1966.5453.405.3312.7854.4946 1.2303.4946 1.0086 0 2.0236-.5179 2.0236-1.7748 0-1.0315-.8845-1.61-1.743-1.61-1.3216 0-2.2338.9-3.0918 1.3614-.2504-.0508-.3153-.133-.3153-.3255 0-.2445.0649-.6236.1224-1.1744-.1224-.1621-.3168-.2486-.5603-.2486-.9821.5537-3.1592 1.287-4.6165 1.6456-.2196.1594-.2196.6524 0 .8171l.4504.246c.5962.3283.5962.6538.5962 1.7484v4.1195c0 1.9095-.1267 2.1555-1.1703 2.241l-.6004.0501c-.2543.164-.2543.7955.0332.9594 1.0437-.0593 2.4326-.083 3.7265-.083 1.4806 0 2.7469.0237 4.2639.083.284-.1639.284-.7954.0285-.9594l-1.0095-.0765c-1.0423-.0868-1.1702-.3052-1.1702-2.2146v-4.203c0-1.0357.1604-1.6416.6056-1.6416"/><path d="M85.3282 18.559l-.4092.0857c-.2561.2454-.1942.8153.123.9501.8845-.0536 2.0167-.0799 3.8878-.0799 1.831 0 2.9958.0263 3.9724.08.3172-.1047.3816-.761.1247-.9502l-.4686-.0856c-.8193-.135-1.4184-.2758-1.8611-.6247-.7933-.627-3.5724-4.3425-4.1322-5.2158-.1632-.2174-.2301-.3796-.2301-.4643 0-.08.0334-.1885.1882-.3558.4436-.3778.9256-.7941 2.1214-1.5853.8485-.5686 1.5171-.8406 2.1163-.9519l1.0059-.1923c.2259-.213.1958-.8227-.1272-.9549-1.8586.2476-4.4804.382-5.9666.382h-.754c-.3146.1142-.3506.71-.066.9548l.7924.1141c.2812.0219.5958.1303.5958.2691 0 .1647-.1523.4628-.7565 1.0868l-1.3213 1.3458c-.6346.6251-1.2968.7626-1.8338.7626-.3437 0-.4453-.0826-.4453-.383v-8.569c0-1.7225.0399-2.8709.1016-3.9878C81.8622.0495 81.6343 0 81.446 0c-1.6138.5948-3.5354 1.2569-4.828 1.5234-.2239.1677-.2239.6608 0 .816l.5356.2802c.629.3283.629.6278.629 1.7253v12.0037c0 1.9096-.1261 2.1291-1.2679 2.2424l-.5987.0537c-.25.1603-.25.7906.0315.9501 1.1059-.0536 2.401-.08 3.8531-.08 1.4547 0 2.7785.0264 3.794.08.2793-.1595.2793-.7898.0289-.9501l-.5015-.0537c-1.1101-.1133-1.2377-.3328-1.2377-2.2424v-1.5805c0-.5222.1596-.6553.378-.6553.3167 0 .571.111.7953.4024l2.238 2.9544c.2536.3242.5356.76.5356.878 0 .1016-.1858.1527-.503.2115"/></g></svg>